<?xml version="1.0" encoding="utf-8"?>
<!-- Generator: Adobe Illustrator 28.1.0, SVG Export Plug-In . SVG Version: 6.00 Build 0)  -->
<svg version="1.1" id="Слой_1" xmlns="http://www.w3.org/2000/svg" xmlns:xlink="http://www.w3.org/1999/xlink" x="0px" y="0px"
	 viewBox="0 0 60 60" style="enable-background:new 0 0 60 60;" xml:space="preserve">
<style type="text/css">
	.st0{enable-background:new    ;}
</style>
<g>
	<path d="M40.15,45.55c0.02,0.11,0.11,0.16,0.21,0.16c0.45,0.13,0.86,0.29,1.24,0.51c0.24,0.13,0.48,0.16,0.75,0.16
		c0.61,0.05,1.04,0.86,0.73,1.39c-0.08,0.13-0.18,0.16-0.33,0.11c-0.24-0.11-0.49-0.19-0.72-0.37c-0.64-0.53-1.48-0.78-2.1-1.4
		c-0.08,0.22,0.05,0.3,0.13,0.37c0.64,0.56,1.31,1.1,2.1,1.47c0.33,0.16,0.67,0.38,0.94,0.64c0.25,0.24,0.37,0.49,0.25,0.84
		c-0.02,0.11-0.05,0.24-0.08,0.33c-0.08,0.16,0.05,0.46-0.24,0.49c-0.37,0.05-0.73,0.1-1.02-0.29c-0.64-0.86-1.34-1.67-2.01-2.5
		c-0.08-0.11-0.18-0.22-0.33-0.21c-0.02-0.02-0.02-0.02-0.05-0.05c0,0.02,0,0.06,0,0.06c0.16,0.41,0.41,0.75,0.73,1.04
		c0.45,0.41,0.8,0.91,1.07,1.45c0.24,0.49,0.08,0.73-0.48,0.68c-0.14-0.02-0.29-0.05-0.41-0.05c-0.16,0-0.24-0.06-0.32-0.22
		c-0.16-0.32-0.29-0.64-0.56-0.99c0.02,0.32,0.05,0.56,0.06,0.81c0.02,0.18-0.05,0.22-0.22,0.21c-0.62-0.05-0.91-0.29-1.07-1.07
		c-0.1-0.49-0.33-0.92-0.51-1.39c-0.02-0.06-0.06-0.14-0.14-0.16c-0.05,0.16,0.02,0.29,0.08,0.4c0.19,0.38,0.22,0.83,0.3,1.24
		c0.02,0.11-0.02,0.16-0.13,0.16c-0.11,0.02-0.21,0.05-0.3,0.08c-0.08,0.02-0.21,0.06-0.16,0.19c0.05,0.1,0.1,0.22,0.25,0.16
		c0.14-0.06,0.29-0.1,0.45-0.02c0.24,0.13,0.46,0.29,0.38,0.61c-0.05,0.21,0,0.41,0.08,0.62c0.24,0.68,0.22,1.37-0.21,2.01
		c-0.1,0.14-0.22,0.25-0.37,0.37c-0.29,0.19-0.56,0.14-0.75-0.14c-0.24-0.37-0.21-0.64,0.13-0.86c0.11-0.06,0.21-0.16,0.3-0.24
		c0.22-0.19,0.16-0.48-0.13-0.56c-0.46-0.14-0.73-0.41-0.72-0.92c0-0.08,0.02-0.21-0.11-0.19c-0.18,0.05-0.32-0.24-0.49-0.05
		c-0.19,0.22-0.38,0.43-0.56,0.67c-0.1,0.13-0.19,0.16-0.32,0.05c-0.16-0.16-0.51-0.18-0.49-0.45c0.02-0.43,0.22-0.81,0.62-1.04
		c0.4-0.24,0.84-0.24,1.29-0.24c0.25,0.02,0.29-0.06,0.24-0.3c-0.1-0.45-0.13-0.88-0.19-1.34c-0.24,0.05-0.38,0.19-0.56,0.33
		c-1.02,0.84-1.93,1.8-2.92,2.69c-0.3,0.29-0.62,0.56-0.94,0.81c-0.16,0.11-0.16,0.21-0.13,0.33c0.13,0.54,0.37,1,0.7,1.43
		c0.51,0.67,0.53,1.1,0.05,1.82c-0.19-0.22-0.38-0.41-0.45-0.72c-0.06-0.37-0.29-0.64-0.54-0.91c-0.02-0.02-0.06-0.06-0.08-0.08
		c-0.05,0.05-0.02,0.1,0,0.14c0.1,0.48,0.29,0.91,0.57,1.31c0.33,0.45,0.33,1.16-0.02,1.56c-0.25,0.29-0.4,0.62-0.53,0.99
		c-0.1,0.25-0.24,0.49-0.46,0.68c-0.16,0.13-0.29,0.13-0.33-0.11c-0.1-0.37-0.22-0.72-0.33-1.08c-0.06-0.18-0.13-0.32-0.37-0.33
		c0.06,0.33,0.1,0.64,0.16,0.96c0.08,0.51,0.16,1.02,0.25,1.51c0.02,0.16,0.02,0.24-0.18,0.24c-0.56-0.02-1.13-0.02-1.7,0
		c-0.21,0-0.22-0.08-0.18-0.24c0.18-0.86,0.43-1.72,0.51-2.61c0.05-0.4,0.11-0.78,0.22-1.16c0.02-0.06,0.06-0.16,0.05-0.22
		c0-0.08,0.02-0.22-0.11-0.24c-0.11-0.02-0.16,0.08-0.19,0.18c-0.05,0.24-0.08,0.46-0.11,0.7c-0.11,0.83-0.3,1.64-0.46,2.47
		c-0.05,0.19-0.08,0.46-0.3,0.49c-0.22,0.05-0.37-0.19-0.49-0.37c-0.29-0.32-0.37-0.64-0.14-1.05c0.25-0.46,0.37-0.99,0.53-1.48
		c0.16-0.49,0.45-0.94,0.53-1.48c0.02-0.18,0.11-0.33,0.02-0.62c-0.16,0.33-0.32,0.61-0.4,0.88c-0.24,0.75-0.48,1.48-0.75,2.21
		c-0.1,0.24-0.19,0.22-0.37,0.1c-0.22-0.16-0.32-0.43-0.46-0.64c-0.16-0.29-0.02-0.48,0.1-0.72c0.05-0.1,0.06-0.21,0.1-0.3
		c0.02-0.02,0.02-0.06,0.02-0.08c-0.02,0.02-0.05,0.02-0.06,0.02c-0.33,0.25-0.41,0.24-0.56-0.16c-0.16-0.41-0.11-0.75,0.14-1.1
		c0.3-0.45,0.61-0.88,0.86-1.34c0.14-0.24,0.13-0.38-0.13-0.59c-0.8-0.68-1.55-1.42-2.31-2.15c-0.51-0.49-1-0.99-1.56-1.42
		c-0.19-0.16-0.37-0.32-0.67-0.33c0.05,0.46-0.06,0.88-0.21,1.29c-0.06,0.16-0.02,0.21,0.16,0.21c0.29,0,0.57,0.02,0.86,0.06
		c0.56,0.06,0.99,0.53,1.04,1.08c0.02,0.29-0.38,0.7-0.67,0.68c-0.08-0.02-0.11-0.06-0.16-0.11c-0.08-0.13-0.18-0.24-0.25-0.37
		c-0.29-0.43-0.29-0.43-0.76-0.29c-0.14,0.05-0.16,0.1-0.16,0.22c0,0.1,0,0.19,0,0.29c-0.05,0.4-0.11,0.46-0.51,0.51
		c-0.46,0.06-0.46,0.06-0.45,0.49c0,0.14,0.06,0.21,0.18,0.25c0.13,0.06,0.24,0.14,0.37,0.18c0.16,0.06,0.16,0.14,0.16,0.29
		c-0.06,0.46-0.24,0.76-0.51,0.81c-0.25,0.06-0.57-0.18-0.76-0.57c-0.32-0.62-0.29-1.29-0.16-1.94c0.02-0.11,0.05-0.21,0.05-0.32
		c0-0.18,0.06-0.41-0.05-0.54c-0.11-0.16-0.33,0.02-0.49,0.02c-0.37,0.02-0.46-0.1-0.4-0.46c0.06-0.37,0.37-0.64,0.48-1
		c0.05-0.16,0.16-0.29,0.13-0.46c-0.43,0.32-0.43,0.32-0.59,0.8c-0.08,0.24-0.18,0.46-0.29,0.68c-0.32,0.61-0.76,0.8-1.42,0.62
		c-0.11-0.02-0.1-0.08-0.1-0.16c0.02-0.25,0.13-0.46,0.29-0.68c0.14-0.18,0.29-0.33,0.33-0.57c0.06-0.06,0.1-0.13,0.05-0.19
		c-0.05-0.06-0.1-0.02-0.13,0.02c-0.37,0.16-0.56,0.48-0.76,0.8c-0.29,0.43-0.62,0.73-1.18,0.67c-0.3-0.05-0.49-0.16-0.57-0.49
		c-0.13-0.57,0.05-1.04,0.51-1.39c0.29-0.21,0.64-0.37,0.84-0.72c-0.22-0.02-0.37,0.1-0.54,0.16c-0.29,0.1-0.4-0.02-0.46-0.29
		c-0.13-0.56,0.1-0.99,0.62-1.19c0.06-0.02,0.16-0.06,0.32-0.14c-0.8-0.16-0.46-0.64-0.4-1c0.06-0.41,0.48-0.24,0.75-0.37
		c-0.11-0.18-0.37-0.25-0.33-0.54c0.02-0.24,0.11-0.45,0.24-0.64c0.08-0.13,0.18-0.16,0.32-0.18c0.3-0.02,0.62-0.08,0.92-0.1
		c0.29-0.02,0.25-0.13,0.16-0.32c-0.53-0.91-1.05-1.78-1.56-2.71c-0.54-0.96-1.1-1.91-1.47-2.96c-0.06-0.16-0.13-0.16-0.25-0.13
		c-0.19,0.06-0.3,0.19-0.38,0.37c-0.13,0.25-0.24,0.53-0.37,0.78c-0.16,0.33-0.43,0.14-0.64,0.13c-0.22-0.02-0.32-0.14-0.29-0.37
		c0.05-0.18,0.06-0.37,0.08-0.54c-0.02-0.02-0.06-0.05-0.06-0.06c-0.13,0.16-0.24,0.32-0.38,0.45c-0.25,0.24-0.92,0.14-1.12-0.16
		c-0.05-0.06-0.02-0.13,0-0.18c0.06-0.25,0.21-0.46,0.41-0.62c0.14-0.1,0.25-0.21,0.29-0.43c-0.18,0.05-0.25,0.18-0.37,0.25
		c-0.22,0.19-0.43,0.38-0.7,0.51c-0.29,0.13-0.56,0.08-0.81-0.13c-0.24-0.21-0.37-0.41-0.22-0.73c0.02-0.05,0.02-0.08,0.02-0.13
		c-0.02-0.02-0.05-0.05-0.06-0.02c-0.73,0.38-1.21-0.1-1.74-0.46C9.74,36,9.76,35.91,9.76,35.83c0-0.37,0.14-0.67,0.33-0.94
		c0.33-0.46,0.64-0.94,0.76-1.55l0,0l0.02,0.02c0.46-0.62,0.46-0.61,1.18-0.33c0.68,0.24,1.37,0.33,2.09,0.18
		c0.16-0.02,0.38-0.08,0.37-0.24c-0.02-0.14-0.24-0.13-0.38-0.14c-0.64-0.06-1.31-0.02-1.96,0c-0.24,0-0.4-0.02-0.49-0.25
		c-0.02-0.68,0.37-0.99,1.08-0.84c0.11,0.02,0.24,0.06,0.33,0.08c0.05,0.05,0.1,0.06,0.13,0.02c0.02-0.02-0.02-0.06-0.05-0.1
		c-0.02-0.05-0.06-0.11-0.1-0.11c-0.38-0.05-0.37-0.33-0.37-0.59c0-0.37,0.29-0.56,0.64-0.45c0.32,0.11,0.62,0.24,0.94,0.33
		c0.24,0.08,0.32,0.02,0.3-0.24c-0.13-1.66-0.24-3.33-0.37-4.97c-0.05-0.53,0.02-1.05-0.06-1.56c-0.06-0.46-0.18-0.56-0.64-0.59
		c-0.22-0.02-0.4-0.08-0.54-0.24c-0.32-0.37-0.49-0.8-0.49-1.29c0-0.29,0.11-0.54,0.33-0.7c0.29-0.22,0.21-0.3-0.08-0.4
		c-0.16-0.06-0.3-0.16-0.43-0.29c-0.33-0.33-0.37-0.68-0.11-1.08c0.1-0.14,0.11-0.18-0.06-0.29c-0.54-0.33-0.56-0.94-0.61-1.48
		c-0.02-0.22,0.29-0.11,0.37-0.29c-0.68-0.24-0.83-0.83-0.84-1.48c0-0.1,0-0.18,0.13-0.22c0.37-0.13,0.68-0.3,1.07-0.38
		c0.29-0.06,0.48-0.02,0.64,0.22c0.05,0.06,0.08,0.13,0.16,0.13c0.21-0.73,0.72-1.02,1.47-0.86c0.13,0.02,0.16,0.11,0.18,0.19
		c0.16,0.33,0.32,0.67,0.48,0.99c0.05,0.1,0.1,0.19,0.22,0.25c0.02-0.29-0.06-0.51-0.11-0.73c-0.19-0.8-0.16-0.86,0.61-1.05
		c0.59-0.14,0.78-0.02,0.86,0.61c0.05,0.45,0.06,0.88,0.1,1.31c0.02,0.1-0.05,0.24,0.13,0.24c0.18,0.02,0.16-0.16,0.16-0.25
		c0.14-1.16,0.56-2.25,1.26-3.19c0.21-0.29,0.46-0.53,0.73-0.73c0.81-0.61,1.67-0.68,2.56-0.19c0.41,0.24,0.78,0.53,1.08,0.91
		c0.4,0.51,0.41,1.12,0.37,1.72c0,0.08,0,0.16,0,0.32c0.13-0.16,0.21-0.25,0.3-0.37c0.64-0.75,1.39-0.91,2.23-0.46
		c0.29,0.14,0.54,0.3,0.8,0.48c0.16,0.1,0.24,0.11,0.37-0.05c0.33-0.37,0.4-0.37,0.72,0.02c0.16,0.21,0.29,0.43,0.32,0.68
		c0.02,0.1,0.02,0.19,0.08,0.29c0.06,0.13,0.18,0.24,0.33,0.21c0.14-0.02,0.1-0.19,0.11-0.3c0.05-0.37-0.08-0.64-0.33-0.91
		c-0.24-0.24-0.54-0.41-0.83-0.61c-0.54-0.33-0.56-0.92-0.06-1.34c0.1-0.08,0.41-0.05,0.22-0.33c-0.19-0.29-0.45-0.4-0.7-0.29
		c-0.22,0.1-0.38,0.25-0.56,0.45c-0.14,0.16-0.24,0.14-0.37-0.02c-0.4-0.46-0.49-1.02-0.24-1.48c0.29-0.51,0.81-0.72,1.43-0.57
		c0.29,0.06,0.54,0.14,0.83,0.22c-0.05-0.4-0.18-0.75-0.45-1.02c-0.19-0.19-0.43-0.22-0.68-0.18c-0.33,0.06-0.62,0.22-0.94,0.33
		c-0.64,0.25-0.91,0.1-0.96-0.59c-0.02-0.13,0.08-0.32-0.1-0.37c-0.18-0.05-0.33,0.06-0.46,0.22c-0.43,0.56-0.45,1.15-0.22,1.77
		c0.05,0.11,0.1,0.22,0.14,0.33c0.06,0.16,0.14,0.33-0.02,0.48c-0.16,0.16-0.33,0.08-0.48,0.02c-0.76-0.32-1.26-1.16-1.05-1.86
		c0.02-0.05,0-0.08,0.02-0.16c-0.24,0.02-0.33,0.21-0.46,0.37c-0.76,0.94-1.69,1.62-2.88,1.88c-1.34,0.29-2.58-0.41-2.96-1.64
		C16.03,9.67,16.29,8.92,17,8.48c0.76-0.46,1.69,0.02,1.74,0.91c0.02,0.33-0.16,0.56-0.56,0.68c-0.16,0.06-0.38,0.05-0.41,0.19
		c-0.05,0.19,0.21,0.24,0.32,0.37c0.49,0.43,1.04,0.46,1.61,0.21c0.56-0.24,0.99-0.64,1.42-1.04c0.14-0.13,0.29-0.24,0.41-0.33
		c0.11-0.06,0.13-0.16,0.11-0.29c-0.02-0.16-0.14-0.1-0.22-0.11C21.27,9.05,21.13,9.05,21,9c-0.68-0.19-0.99-0.91-0.68-1.55
		c0.06-0.16,0.19-0.22,0.33-0.18c0.94,0.29,1.85,0,2.77-0.16c0.53-0.08,0.53-0.08,0.25-0.54c-0.19-0.33-0.19-0.68-0.06-1.02
		c0.11-0.25,0.3-0.33,0.57-0.24c0.33,0.14,0.64,0.37,0.88,0.64c1.16,1.26,2.44,2.45,3.5,3.81c0.02,0.02,0.06,0.06,0.13,0.16
		c-0.02-0.57-0.24-1.04-0.48-1.47c-0.56-0.99-1.23-1.86-2.09-2.61c-0.61-0.53-0.64-0.86-0.21-1.53c0.02-0.05,0.06-0.1,0.08-0.14
		c0.18-0.37,0.21-0.38,0.53-0.11c0.3,0.25,0.53,0.59,0.75,0.92c0.43,0.64,0.84,1.29,1.26,1.94c0.08,0.13,0.19,0.33,0.33,0.29
		c0.21-0.1,0.08-0.33,0.05-0.49c-0.24-0.76-0.64-1.45-1.07-2.12C27.6,4.14,27.3,3.7,27.02,3.27c-0.08-0.13-0.1-0.24-0.06-0.38
		c0.13-0.45,0.33-0.81,0.75-1.05c0.18-0.1,0.29-0.11,0.4,0.11c0.48,0.96,0.91,1.96,1.13,3.03c0.02,0.11,0,0.29,0.18,0.24
		c0.18-0.02,0.11-0.18,0.11-0.29c0-1.18-0.06-2.36-0.3-3.5c-0.02-0.08-0.02-0.16-0.05-0.24c-0.05-0.37,0.02-0.46,0.37-0.51
		c0.38-0.06,0.76-0.05,1.16-0.02c0.25,0,0.33,0.18,0.3,0.4c-0.05,0.56-0.1,1.12-0.16,1.67c-0.08,0.76-0.14,1.51-0.13,2.31
		c0.24-0.16,0.29-0.41,0.37-0.62c0.22-0.68,0.48-1.34,0.8-2.01c0.29-0.59,0.46-0.62,0.99-0.18c0.64,0.56,0.68,0.72,0.14,1.39
		c-0.78,0.99-1.34,2.09-1.77,3.27c-0.06,0.21-0.08,0.41-0.13,0.64c0,0.02-0.02,0.06,0,0.08c0.05,0.02,0.05-0.02,0.06-0.05
		c0.46-0.73,0.91-1.45,1.34-2.18c0.32-0.51,0.68-0.94,1.13-1.34c0.13-0.11,0.19-0.11,0.32,0c0.46,0.38,0.56,0.91,0.56,1.45
		c0,0.18-0.16,0.24-0.29,0.33c-0.96,0.67-1.58,1.61-2.2,2.56c-0.21,0.32-0.37,0.68-0.45,1.1c0.25-0.16,0.37-0.37,0.53-0.56
		c1.04-1.26,2.2-2.34,3.57-3.2c0.18-0.11,0.37-0.21,0.57-0.25c0.32-0.06,0.46,0.06,0.41,0.37c-0.06,0.4-0.24,0.76-0.41,1.12
		C36.25,7,36.25,7.03,36.2,7.11c1.02,0.1,1.99,0.48,3.01,0.25c0.49-0.11,0.64,0.02,0.72,0.53c0.08,0.57-0.16,0.99-0.75,1.18
		C39,9.13,38.81,9.18,38.62,9.21c-0.16,0.02-0.22,0.06-0.1,0.22c0.64,0.78,1.4,1.39,2.42,1.58c0.61,0.13,1.1-0.13,1.29-0.59
		c0.06-0.16,0.06-0.24-0.14-0.24c-0.56,0.02-0.73-0.22-0.72-0.72c0.02-0.67,0.37-1.07,0.88-1.07c0.64,0,1.12,0.37,1.43,0.88
		c0.33,0.57,0.29,1.16-0.06,1.69c-0.37,0.56-0.88,0.96-1.5,1.23c-0.41,0.18-0.84,0.08-1.26,0.02c-0.19-0.02-0.37-0.06-0.59-0.05
		c0.76,0.54,1.51,1.08,1.94,1.94c0.41,0.84,0.57,1.77,0.78,2.71c0.19-0.22,0.21-0.46,0.22-0.7c0.05-0.37,0.05-0.7,0.08-1.07
		c0.05-0.37,0.29-0.54,0.78-0.56c0.38-0.02,0.62,0.16,0.68,0.54c0.06,0.38-0.06,0.75-0.13,1.1c-0.02,0.11-0.1,0.22-0.06,0.37
		c0.3-0.29,0.41-0.67,0.56-1c0.29-0.75,0.1-0.62,0.88-0.54c0.11,0.02,0.24,0.05,0.33,0.08c0.4,0.13,0.53,0.37,0.33,0.76
		c-0.06,0.14-0.16,0.25-0.13,0.45c0.33-0.13,0.53-0.38,0.67-0.67c0.08-0.16,0.18-0.22,0.37-0.18c0.37,0.06,0.7,0.24,1.05,0.38
		c0.11,0.05,0.11,0.11,0.11,0.19c-0.02,0.25-0.02,0.51-0.05,0.76c-0.02,0.33-0.14,0.62-0.56,0.67c-0.18,0.02-0.32,0.16-0.4,0.33
		c0.06,0.11,0.16,0.06,0.24,0.06c0.46,0.02,0.46,0,0.4,0.46c-0.06,0.49-0.19,0.94-0.8,1.08c0.51,0.37,0.22,0.78,0.1,1.16
		c-0.16,0.53-0.62,0.46-1.1,0.49c0.25,0.18,0.48,0.32,0.64,0.51c0.18,0.21,0.25,0.45,0.24,0.72c-0.06,0.64-0.7,1.26-1.34,1.32
		c-0.25,0.02-0.38,0.16-0.41,0.4c-0.02,0.21-0.05,0.41-0.05,0.61c0.06,1.72-0.18,3.42-0.24,5.13c-0.02,0.33-0.05,0.67-0.06,0.99
		c-0.02,0.21,0.06,0.24,0.24,0.19c0.24-0.06,0.46-0.19,0.68-0.3c0.46-0.24,1.08,0.13,1.05,0.64c-0.02,0.24,0.16,0.32,0.32,0.37
		c0.33,0.11,0.53,0.37,0.62,0.68c0.05,0.13,0.02,0.19-0.1,0.25c-0.33,0.19-0.7,0.25-1.08,0.19c-0.45-0.06-0.91-0.14-1.34-0.05
		c-0.14,0.02-0.33,0.02-0.32,0.21s0.22,0.18,0.37,0.16c0.86-0.1,1.7-0.1,2.55-0.29c0.22-0.05,0.33,0,0.46,0.21
		c0.16,0.24,0.29,0.49,0.37,0.78c0.06,0.29,0.24,0.53,0.4,0.76c0.13,0.16,0.24,0.33,0.33,0.51c0.37,0.62,0.33,0.78-0.19,1.29
		c-0.37,0.37-0.78,0.41-1.29,0.13c-0.13-0.06-0.24-0.16-0.37-0.24c-0.02-0.02-0.05-0.02-0.06-0.02c0,0.02,0,0.06,0,0.06
		c0.02,0.16,0.08,0.25,0.24,0.37c0.19,0.13,0.22,0.29,0.06,0.48c-0.37,0.48-0.7,0.56-1.21,0.21c-0.19-0.13-0.37-0.25-0.62-0.33
		c0.1,0.14,0.21,0.24,0.29,0.4c0.1,0.21,0.24,0.45,0.02,0.64c-0.33,0.32-0.68,0.33-0.94,0.11c-0.11-0.08-0.21-0.19-0.3-0.29
		c-0.02-0.02-0.06-0.05-0.06-0.02c-0.06,0.02-0.02,0.06,0,0.1c0,0.14,0.06,0.29-0.06,0.38c-0.19,0.1-0.3,0.29-0.46,0.4
		c-0.19,0.06-0.32,0-0.4-0.21c-0.13-0.33-0.29-0.68-0.43-1c-0.06-0.16-0.16-0.24-0.33-0.29c-0.13-0.02-0.19-0.02-0.24,0.13
		c-0.73,1.93-1.77,3.71-2.93,5.42c-0.29,0.41-0.24,0.46,0.24,0.62c0.1,0.02,0.19,0.06,0.29,0.06c0.46-0.02,0.86,0.02,0.99,0.64
		c0.1-0.37,0.1-0.37-0.1-0.68c-0.33-0.56-0.46-1.15-0.22-1.78c0.05-0.11,0.11-0.22,0.18-0.3c0.18-0.21,0.4-0.4,0.68-0.29
		c0.29,0.11,0.3,0.41,0.33,0.68c0.02,0.1-0.02,0.16-0.1,0.22c-0.06,0.05-0.11,0.06-0.16,0.11c-0.14,0.11-0.25,0.29-0.22,0.45
		c0.05,0.18,0.24,0.29,0.43,0.3c0.37,0.06,0.64,0.16,0.75,0.56c0.05,0.19,0.33,0.25,0.51,0.16c0.19-0.11,0.29-0.3,0.37-0.51
		c0.08-0.24,0.24-0.37,0.48-0.33c0.25,0.05,0.43,0.19,0.46,0.46c0.06,0.32-0.08,0.56-0.3,0.76c-0.33,0.33-0.76,0.49-1.23,0.61
		c-0.37,0.08-0.75,0.11-1.12,0.16c-0.29,0.02-0.48-0.05-0.57-0.32c-0.02-0.06-0.06-0.11-0.13-0.16c0.06,0.33-0.22,0.45-0.46,0.56
		c0.1,0.14,0.21,0.1,0.3,0.11c0.51,0.13,0.75,0.64,0.51,1.1c-0.08,0.16-0.18,0.06-0.25,0.05c-0.7-0.24-1.4-0.51-2.1-0.76
		c-0.18-0.1-0.33-0.18-0.53-0.29c-0.06-0.02-0.11-0.1-0.16-0.02c-0.05,0.06-0.05,0.14,0.02,0.21C39.77,45.4,39.94,45.5,40.15,45.55z
		 M41.73,18.39c-0.21,0.02-0.3,0.16-0.4,0.29c-0.13,0.16-0.29,0.18-0.46,0.13c-0.54-0.16-0.67-0.45-0.37-0.94
		c0.1-0.18,0.22-0.33,0.33-0.51c0.19-0.29,0.37-0.57,0.48-0.91c0.33-1.02-0.13-2.23-1.05-2.71c-1.02-0.51-2.02,0.06-2.09,1.21
		c-0.02,0.33,0.05,0.68,0.14,1.02c0.14,0.49,0.78,0.7,1.19,0.4c0.21-0.16,0.19-0.3-0.05-0.4c-0.19-0.08-0.41-0.1-0.62-0.16
		c-0.4-0.16-0.49-0.46-0.24-0.81c0.4-0.56,1.16-0.59,1.62-0.11c0.86,0.91,0.67,2.1-0.48,2.71c-0.16,0.08-0.43,0.05-0.48,0.25
		c-0.05,0.19,0.02,0.4,0.02,0.61c0.02,0.14,0.02,0.29,0.05,0.41c0.11,0.83-0.11,1.55-0.57,2.21c-0.24,0.33-0.45,0.68-0.68,1.02
		c-0.13,0.16-0.19,0.49-0.38,0.46c-0.24-0.02-0.37-0.32-0.45-0.56c-0.02-0.02-0.02-0.05-0.02-0.06c-0.05-0.21-0.16-0.22-0.37-0.16
		c-0.54,0.18-1.08,0.33-1.67,0.33c-0.68,0-0.76-0.06-0.61-0.73c0.06-0.24-0.02-0.3-0.21-0.4c-0.83-0.45-1.48-1.05-1.78-1.96
		c-0.11-0.37-0.1-0.37,0.29-0.37c0.06,0,0.21,0.08,0.21-0.1c0-0.53-0.32-0.91-0.84-0.94c-0.54-0.06-1.08-0.08-1.64-0.08
		c-0.88,0-1.78-0.21-2.66,0.02c-0.24,0.06-0.56-0.06-0.72,0.16c-0.14,0.21-0.16,0.51-0.21,0.76c0,0.02-0.02,0.05-0.02,0.06
		c-0.02,0.1,0.02,0.13,0.11,0.14c0.3,0.06,0.37,0.21,0.24,0.49c-0.33,0.73-0.86,1.29-1.53,1.69c-0.18,0.11-0.38,0.21-0.51,0.38
		c-0.05,0.06-0.16,0.16-0.02,0.24c0.19,0.14,0.08,0.3,0.05,0.46c-0.05,0.18-0.22,0.16-0.33,0.16c-0.56-0.02-1.08-0.13-1.62-0.24
		c-0.19-0.05-0.38-0.14-0.56-0.1c-0.24,0.05-0.13,0.33-0.24,0.49c-0.08,0.11-0.08,0.33-0.22,0.32c-0.16-0.02-0.32-0.16-0.41-0.32
		c-0.02-0.02-0.02-0.05-0.02-0.06c-0.16-0.46-0.41-0.86-0.68-1.24c-0.41-0.59-0.59-1.24-0.54-1.94c0.02-0.37,0.06-0.7,0.13-1.05
		c0.02-0.16,0.02-0.24-0.16-0.29c-0.13-0.02-0.24-0.08-0.37-0.14c-1.26-0.61-1.37-2.07-0.21-2.87c0.64-0.45,1.24-0.21,1.4,0.56
		c0.08,0.37-0.02,0.56-0.38,0.64c-0.18,0.06-0.37,0.08-0.53,0.16c-0.24,0.11-0.24,0.25-0.02,0.4c0.37,0.24,0.64,0.21,0.91-0.16
		c0.29-0.37,0.37-0.78,0.38-1.24c0.02-0.7-0.29-1.21-0.81-1.45c-0.57-0.24-1.24-0.1-1.7,0.4c-0.49,0.53-0.62,1.16-0.64,1.86
		c-0.02,0.73,0.21,1.31,0.94,1.61c0.1,0.05,0.24,0.06,0.24,0.19c0.02,0.33-0.02,0.64-0.24,0.91c-0.19,0.24-0.46,0.22-0.72,0.16
		c-0.22-0.06-0.43-0.18-0.64-0.29c0.08,0.68,0.33,1.26,1.08,1.45c0.18,0.05,0.33,0.16,0.53,0.24c0.06,0.05,0.16,0.06,0.14,0.19
		c-0.06,0.48-0.18,0.91-0.62,1.16c-0.38,0.24-0.75,0.08-1.07-0.18c-0.29-0.24-0.56-0.46-0.88-0.75c0.02,0.51,0.13,0.91,0.38,1.29
		c0.11,0.16,0.22,0.29,0.3,0.46c0.18,0.37,0.11,0.67-0.22,0.94c-0.29,0.22-0.59,0.21-0.91-0.06c-0.3-0.24-0.43-0.57-0.48-0.94
		c-0.02-0.24,0.02-0.48-0.1-0.73c-0.06,0.08-0.11,0.13-0.14,0.18c-0.29,0.43-0.46,0.92-0.83,1.29c-0.29,0.3-0.4,0.64-0.41,1.05
		c-0.02,0.72,0.06,1.43,0.13,2.15c0.1,1.26,0.08,2.5,0.24,3.76c0.29,2.41,0.92,4.73,1.78,6.98c0.53,1.39,1.26,2.61,2.01,3.87
		c1.02,1.69,1.96,3.39,3.15,4.95c1.96,2.64,4.67,4.46,7.2,6.48c0.4,0.32,0.61,0.25,1.02-0.11c0.76-0.68,1.53-1.34,2.29-2.02
		c1.19-1.08,2.42-2.12,3.58-3.23c2.09-1.99,3.5-4.48,4.91-6.93c0.99-1.69,1.7-3.54,2.26-5.42c0.91-3.11,1.18-6.28,1.24-9.48
		c0.02-1.13-0.22-2.09-0.94-2.95c-0.08-0.08-0.1-0.24-0.24-0.25c-0.06,0.21-0.11,0.4-0.18,0.59c-0.06,0.21-0.16,0.4-0.25,0.57
		c-0.3,0.43-0.64,0.51-1.08,0.24c-0.38-0.22-0.43-0.46-0.19-0.96c0.19-0.4,0.43-0.76,0.56-1.19c0.06-0.22,0.16-0.43,0.06-0.7
		c-0.29,0.33-0.54,0.64-0.81,0.92c-0.38,0.37-0.86,0.37-1.23-0.02c-0.7-0.78-0.72-1.19,0.33-1.56
		C41.5,19.45,41.76,19.12,41.73,18.39z M37.06,15.52c-0.24-2.15,0.83-3.19,2.88-3.49c-0.92-0.64-1.61-1.4-2.34-2.15
		c-0.08,0.21-0.02,0.32-0.02,0.43c0.06,0.88-0.38,1.5-1.26,1.69c-0.32,0.06-0.33,0.05-0.29-0.29c0.1-0.4,0.22-0.78,0.29-1.18
		c0.11-0.64-0.29-1.32-0.8-1.48c-0.02,0.14-0.02,0.29-0.05,0.41c-0.02,0.14-0.05,0.29-0.08,0.41c-0.16,0.48-0.4,0.56-0.8,0.29
		c-0.14-0.1-0.29-0.21-0.43-0.29c-0.37-0.18-0.7-0.16-1.04,0.06c-0.41,0.29-0.68,0.68-0.92,1.16c0.4-0.13,0.72-0.33,1.08-0.37
		c0.56-0.08,1.08,0.18,1.37,0.68c0.24,0.41,0.16,0.86-0.22,1.29c-0.16,0.19-0.29,0.24-0.46,0.02c-0.13-0.16-0.24-0.32-0.43-0.38
		c-0.24-0.08-0.54-0.02-0.68,0.16c-0.16,0.16,0.06,0.37,0.18,0.53c0.18,0.22,0.29,0.46,0.33,0.72c0.05,0.19-0.02,0.3-0.18,0.38
		c-0.29,0.16-0.56,0.32-0.8,0.54c-0.32,0.29-0.59,0.59-0.68,1.02c-0.02,0.16-0.02,0.33,0.16,0.4c0.19,0.06,0.24-0.14,0.3-0.25
		c0.16-0.33,0.3-0.7,0.56-1.02c0.18-0.24,0.33-0.19,0.53-0.02c0.06,0.06,0.13,0.16,0.16,0.24c0.06,0.18,0.16,0.16,0.29,0.05
		c0.25-0.22,0.54-0.43,0.84-0.57c0.73-0.38,1.31-0.3,1.91,0.29C36.61,15.04,36.82,15.26,37.06,15.52z M22.93,16.01
		c-0.13,0.06-0.14,0.14-0.18,0.22c-0.18,0.38-0.33,0.8-0.72,1.05c-0.32,0.22-0.4,0.51-0.37,0.86c0.02,0.32,0.18,0.59,0.37,0.84
		c0.54,0.7,1.24,0.8,2.07,0.68c1.58-0.21,2.61-1.96,1.94-3.42c-0.14-0.32-0.37-0.56-0.7-0.59c-0.33-0.06-0.73,0-0.94,0.29
		c-0.22,0.25,0.1,0.48,0.22,0.7c0.02,0.02,0.05,0.06,0.06,0.08c0.16,0.3-0.02,0.72-0.33,0.81c-0.59,0.16-1.13-0.16-1.32-0.8
		C22.96,16.49,22.98,16.27,22.93,16.01z M37.17,16.36c-0.06,0.22-0.11,0.37-0.16,0.51c-0.32,0.81-0.92,0.76-1.53,0.56
		c-0.08-0.02-0.1-0.1-0.13-0.16c-0.16-0.37-0.02-0.64,0.19-0.91c0.1-0.13,0.29-0.24,0.06-0.43c-0.59-0.51-1.34-0.33-1.67,0.37
		c-0.22,0.51-0.21,1.05-0.06,1.56c0.48,1.7,2.49,2.41,3.82,1.34c0.64-0.49,0.75-1.18,0.29-1.83C37.76,17.05,37.47,16.73,37.17,16.36
		z M20.56,45.02c-0.21,0.08-0.38,0.08-0.41,0.29c-0.02,0.06-0.06,0.1-0.13,0.11c-0.53,0.1-1,0.33-1.51,0.49
		c-0.24,0.06-0.33,0.19-0.24,0.46c0.64-0.29,1.4-0.32,1.88-0.94c0.02-0.02,0.06-0.02,0.08-0.02C20.59,45.53,20.48,45.24,20.56,45.02
		z M12.82,19.63c0.53,0.76,1.37,1.04,2.2,1.29C14.44,20.23,13.64,19.91,12.82,19.63z M45.2,20.63c0.3,0.1,0.51,0.02,0.72-0.06
		c0.37-0.18,0.75-0.37,1.1-0.56c0.14-0.06,0.37-0.16,0.32-0.3c-0.08-0.18-0.32-0.11-0.49-0.05c-0.02,0.02-0.05,0.02-0.06,0.02
		C46.25,19.96,45.74,20.28,45.2,20.63z M18.36,47.71c0.02,0,0.05,0.02,0.06,0.02c0.78-0.29,1.31-0.94,1.96-1.39
		c0.08-0.06,0.02-0.11-0.05-0.14c-0.1-0.02-0.16,0.02-0.24,0.08c-0.49,0.33-0.99,0.67-1.51,0.99
		C18.42,47.38,18.33,47.49,18.36,47.71z M46,18.75c-0.64,0.33-1.21,0.68-1.51,1.34c0.41-0.19,0.75-0.53,1.16-0.67
		C46,19.31,46.06,19.12,46,18.75z M46.36,21.28c-0.25,0.16-0.51,0.3-0.75,0.46c-0.08,0.06-0.29,0.05-0.24,0.19
		c0.05,0.16,0.13,0.37,0.33,0.37c0.11,0.02,0.24,0,0.33,0.02c0.16,0.02,0.19-0.06,0.21-0.21C46.28,21.86,46.32,21.59,46.36,21.28z
		 M14.2,19.04c0-0.14-0.06-0.18-0.14-0.21c-0.46-0.33-0.94-0.67-1.42-0.99c-0.06-0.06-0.22-0.19-0.24-0.06
		c-0.02,0.11-0.11,0.37,0.13,0.43c0.38,0.11,0.7,0.33,1.04,0.56C13.74,18.89,13.93,19.04,14.2,19.04z M46.35,34.01
		c0.37,0.37,2.2,0.51,2.49,0.21C48.02,34.17,47.22,34.09,46.35,34.01z M20.68,47.04c-0.54,0.54-1,1.08-1.47,1.66
		c-0.05,0.06-0.06,0.13-0.02,0.18c0.08,0.06,0.14-0.02,0.19-0.06c0.54-0.4,0.75-1.08,1.24-1.5C20.68,47.28,20.73,47.2,20.68,47.04z
		 M22.31,47.73c-0.13,0-0.16,0.06-0.18,0.13c-0.29,0.57-0.43,1.18-0.57,1.78c-0.02,0.13-0.05,0.29,0.16,0.29
		c0.21,0.02,0.16-0.16,0.16-0.29c-0.02-0.49,0.1-0.94,0.25-1.4C22.2,48.08,22.23,47.89,22.31,47.73z M31.21,54.08
		c0.16,0.64,0.24,1.29,0.72,1.8C31.87,55.21,31.63,54.63,31.21,54.08z M13.98,22.3c0.32,0.02,0.61-0.13,0.59-0.24
		c-0.02-0.29-0.29-0.48-0.62-0.49c-0.08,0-0.19,0-0.13,0.1C13.96,21.86,13.74,22.18,13.98,22.3z M15.25,35.54
		c-0.8,0.29-1.08,0.56-1.04,0.94C14.6,36.19,15.14,36.12,15.25,35.54z M46.17,36.8c-0.14-0.53-0.57-0.92-1.07-0.96
		C45.42,36.21,45.66,36.61,46.17,36.8z M27.52,54.75c0.18-0.05,0.29-0.11,0.33-0.22c0.1-0.16,0.16-0.33,0.29-0.46
		c0.16-0.14,0.11-0.29,0.14-0.45c0.02-0.06-0.02-0.13-0.08-0.16c-0.08-0.05-0.11,0.06-0.13,0.1C27.87,53.97,27.71,54.34,27.52,54.75
		z M18.93,45.04c0.21-0.05,0.46-0.16,0.64-0.33c0.13-0.11-0.02-0.14-0.1-0.16c-0.29-0.06-0.54,0.06-0.76,0.22
		c-0.06,0.05-0.06,0.11-0.05,0.18C18.71,45,18.79,45.04,18.93,45.04z M30.39,54.98c-0.06,0.45,0.02,0.78,0.1,1.13
		c0.05,0.14,0.14,0.22,0.24,0.18c0.11-0.05,0.02-0.16,0.02-0.24C30.67,55.69,30.59,55.34,30.39,54.98z M15.14,19.8
		c-0.11-0.33-0.22-0.56-0.46-0.7c-0.11-0.06-0.29-0.16-0.33-0.05c-0.06,0.13-0.05,0.32,0.16,0.4C14.69,19.58,14.89,19.68,15.14,19.8
		z M47.62,36.21c-0.16-0.57-0.3-0.68-0.72-0.54C47,36.04,47.3,36.1,47.62,36.21z M46.63,31.62c-0.24,0.1-0.48,0.16-0.7,0.24
		c-0.13,0.05-0.18,0.11-0.05,0.19c0.24,0.14,0.46,0.05,0.67-0.06C46.75,31.94,46.62,31.78,46.63,31.62z M47.45,17.84
		c-0.32,0.29-0.59,0.49-0.91,0.76C47.27,18.48,47.43,18.35,47.45,17.84z M41.04,44.4c-0.16,0.02-0.38,0.1-0.37,0.21
		c0.02,0.21,0.25,0.24,0.46,0.29c0.1,0.02,0.22-0.02,0.19-0.14C41.31,44.59,41.25,44.43,41.04,44.4z M45.2,37.42
		c-0.14-0.37-0.37-0.67-0.75-0.76C44.58,37.02,44.93,37.18,45.2,37.42z M30.56,6.42c0.22-0.21,0.25-0.41,0.32-0.61
		c0.02-0.08,0.05-0.21-0.1-0.24c-0.13-0.02-0.21,0.06-0.22,0.18C30.56,5.94,30.56,6.14,30.56,6.42z M12.08,36.4
		c0.25-0.13,0.51-0.21,0.72-0.41C12.19,35.92,12.15,35.94,12.08,36.4z M15.57,16.98c0.05,0.37,0.11,0.46,0.49,0.73
		C16.03,17.33,15.84,17.05,15.57,16.98z M38.99,48.05c0.08,0.24,0.1,0.46,0.37,0.57C39.35,48.35,39.42,48.08,38.99,48.05z
		 M29.59,5.82c-0.13,0.21-0.1,0.4,0,0.57c0.02,0.06,0.1,0.02,0.14-0.02c0.16-0.19,0.02-0.37-0.06-0.53
		C29.65,5.85,29.64,5.83,29.59,5.82z M13.72,16.71c-0.02-0.46-0.05-0.48-0.45-0.48C13.44,16.41,13.58,16.55,13.72,16.71z
		 M22.44,49.74c-0.16,0.05-0.29,0.06-0.25,0.24c0.02,0.05,0.02,0.1,0.06,0.08C22.4,50.04,22.39,49.89,22.44,49.74z M13.69,36.82
		c-0.02-0.02-0.02-0.02-0.02-0.02c-0.02,0.02-0.02,0.02-0.02,0.05l0.02,0.02C13.68,36.85,13.68,36.82,13.69,36.82z"/>
	<path d="M36.06,55.36c-0.62-0.02-1.15-0.16-1.69-0.13c-0.3,0.02-0.41-0.24-0.46-0.49c-0.1-0.53-0.19-1.05-0.25-1.58
		c-0.06-0.56,0.08-1.07,0.43-1.5c0.16-0.21,0.38-0.4,0.68-0.3c0.32,0.1,0.41,0.38,0.48,0.68c0.05,0.21-0.14,0.32-0.29,0.45
		c-0.1,0.08-0.22,0.14-0.3,0.24c-0.1,0.11-0.25,0.22-0.18,0.38s0.19,0.32,0.43,0.33c0.33,0.02,0.49,0.29,0.57,0.61
		c0.13,0.45,0.46,0.54,0.8,0.22c0.1-0.08,0.16-0.21,0.24-0.29c0.11-0.1,0.14-0.33,0.38-0.24c0.24,0.1,0.46,0.18,0.46,0.53
		c0,0.61-0.3,1-0.91,1.1C36.33,55.34,36.14,55.36,36.06,55.36z"/>
	<path d="M24.22,55.47c-0.33-0.02-0.67,0.05-0.99-0.06c-0.43-0.16-0.75-0.56-0.75-0.99c0-0.4,0.38-0.7,0.76-0.61
		c0.14,0.02,0.16,0.14,0.21,0.25c0.13,0.37,0.43,0.54,0.78,0.49c0.14-0.02,0.14-0.1,0.16-0.19c0.05-0.18,0.1-0.37,0.16-0.53
		c0.06-0.18,0.18-0.29,0.4-0.22c0.18,0.06,0.29-0.02,0.33-0.19c0.06-0.18,0.21-0.37,0-0.56c-0.1-0.08-0.21-0.16-0.32-0.22
		c-0.16-0.1-0.25-0.22-0.29-0.41c-0.02-0.25-0.02-0.54,0.24-0.68c0.29-0.16,0.53-0.05,0.75,0.13c0.24,0.19,0.4,0.45,0.46,0.75
		c0.11,0.46,0.14,0.94,0.02,1.37c-0.1,0.33-0.11,0.64-0.06,0.99c0.02,0.29-0.14,0.4-0.37,0.48C25.27,55.44,24.73,55.44,24.22,55.47z
		"/>
	<path d="M17.9,42.46c0,0.37-0.02,0.73-0.29,1.07c-0.19,0.24-0.21,0.57-0.25,0.88c-0.02,0.11-0.05,0.22-0.19,0.25
		c-0.91,0.22-1.75,0.16-2.49-0.46c-0.29-0.24-0.53-0.54-0.56-0.94c-0.02-0.29,0.13-0.45,0.4-0.48c0.32-0.05,0.53,0.08,0.56,0.37
		c0.02,0.24,0.11,0.45,0.37,0.49c0.24,0.06,0.45,0.11,0.46-0.29c0.02-0.33,0.18-0.45,0.54-0.43c0.08,0,0.18,0.02,0.25,0
		c0.19-0.02,0.37-0.14,0.43-0.3c0.06-0.14-0.1-0.24-0.19-0.33c-0.24-0.21-0.33-0.46-0.32-0.76s0.22-0.46,0.53-0.41
		c0.41,0.06,0.72,0.41,0.75,0.86C17.9,42.15,17.9,42.3,17.9,42.46z"/>
	<path d="M45.31,38.84c0.33-0.02,0.54,0.14,0.64,0.46c0.1,0.33,0.24,0.67,0.4,0.99c0.3,0.64,0.25,1.29-0.13,1.91
		c-0.14,0.24-0.33,0.43-0.67,0.3c-0.21-0.08-0.41-0.62-0.33-0.86c0.02-0.08,0.08-0.1,0.14-0.11c0.3-0.1,0.32-0.37,0.32-0.61
		c0-0.24-0.24-0.29-0.37-0.24c-0.48,0.08-0.68-0.18-0.86-0.56c-0.06-0.13-0.14-0.29-0.32-0.29c-0.18,0-0.21,0.19-0.29,0.32
		c-0.06,0.1-0.08,0.21-0.14,0.29c-0.06,0.13-0.05,0.33-0.22,0.37c-0.24,0.05-0.46-0.02-0.68-0.13c-0.08-0.05-0.06-0.13-0.06-0.19
		c-0.11-0.59,0.11-0.99,0.67-1.21c0.33-0.16,0.68-0.25,1.05-0.29c0.22-0.02,0.43,0,0.64-0.06C45.15,38.89,45.23,38.87,45.31,38.84z"
		/>
	<path d="M13.17,41.26c0.02-0.08,0.02-0.19,0.05-0.29c0.19-0.61,0.4-1.19,0.61-1.78c0.06-0.22,0.24-0.33,0.46-0.3
		c0.57,0.06,1.15,0.13,1.72,0.24c0.59,0.11,0.99,0.59,1.04,1.19c0.02,0.24-0.06,0.46-0.33,0.51c-0.33,0.06-0.64-0.06-0.72-0.33
		c-0.02-0.11-0.05-0.24-0.06-0.33c-0.06-0.16-0.18-0.22-0.33-0.24c-0.16,0-0.3,0.02-0.37,0.21c-0.11,0.37-0.32,0.59-0.73,0.57
		c-0.08,0-0.16,0.06-0.24,0.1c-0.24,0.11-0.3,0.24-0.1,0.46c0.19,0.21,0.37,0.43,0.33,0.75c-0.02,0.19-0.06,0.37-0.24,0.46
		c-0.19,0.1-0.37,0.05-0.54-0.08C13.32,42.07,13.17,41.72,13.17,41.26z"/>
	<path d="M45.9,27.62c-0.02-0.46,0.25-0.76,0.62-0.99c0.08-0.06,0.14-0.05,0.19,0.02c0.13,0.16,0.25,0.29,0.38,0.43
		c0.08,0.08,0.06,0.16,0.02,0.25c-0.06,0.14-0.14,0.25-0.19,0.4c-0.06,0.14-0.11,0.3,0.02,0.43c0.14,0.14,0.33,0.16,0.48,0.06
		c0.3-0.21,0.48-0.02,0.67,0.16c0.08,0.08,0.16,0.16,0.29,0.21c0.24,0.1,0.4,0.02,0.46-0.24c0.05-0.19,0.06-0.38,0.16-0.56
		c0.1-0.18,0.24-0.33,0.46-0.3c0.24,0.02,0.37,0.18,0.43,0.38c0.16,0.46-0.02,0.83-0.32,1.15c-0.29,0.3-0.64,0.51-1.04,0.64
		c-0.29,0.08-0.56,0.18-0.76,0.4c-0.14,0.14-0.3,0.16-0.41,0c-0.41-0.59-0.96-1.08-1.29-1.77C45.96,28.09,45.9,27.88,45.9,27.62z"/>
	<path d="M50.27,26.19c0.02,0.46-0.29,0.72-0.62,0.94c-0.02,0.02-0.08,0.02-0.11,0.02c-0.37-0.08-0.57-0.48-0.43-0.86
		c0.05-0.08,0.08-0.18,0.13-0.25c0.05-0.13,0.16-0.24,0.05-0.38c-0.13-0.13-0.29-0.16-0.46-0.11c-0.08,0.02-0.16,0.05-0.24,0.08
		c-0.22,0.08-0.37,0.02-0.46-0.21c-0.08-0.19-0.56-0.32-0.73-0.21c-0.06,0.02-0.06,0.08-0.06,0.14c-0.02,0.1-0.02,0.19-0.02,0.29
		c-0.06,0.62-0.21,0.72-0.81,0.56c-0.21-0.06-0.24-0.16-0.24-0.33c0.05-0.81,0.4-1.39,1.23-1.61c0.37-0.1,0.68-0.29,0.99-0.46
		c0.22-0.13,0.46-0.13,0.59,0.11c0.37,0.56,0.76,1.12,1.07,1.72C50.22,25.81,50.27,26,50.27,26.19z"/>
	<path d="M9.98,28.13c-0.02-0.4,0.19-0.64,0.53-0.62c0.25,0.02,0.43,0.14,0.43,0.41c0,0.06,0,0.11,0,0.16c0,0.18-0.05,0.4,0.19,0.46
		c0.24,0.06,0.54,0.1,0.7-0.16c0.16-0.22,0.33-0.21,0.53-0.13c0.13,0.06,0.24,0.08,0.37,0.02c0.33-0.14,0.37-0.19,0.22-0.53
		c-0.05-0.08-0.08-0.18-0.13-0.25c-0.18-0.41-0.14-0.53,0.24-0.76c0.18-0.13,0.33-0.13,0.49,0.02c0.45,0.33,0.59,0.84,0.37,1.34
		c-0.33,0.75-0.91,1.34-1.45,1.96c-0.11,0.14-0.24,0.11-0.33-0.02c-0.22-0.24-0.49-0.38-0.83-0.46C10.57,29.44,10,28.82,9.98,28.13z
		"/>
	<path d="M9.74,26.17c-0.05-0.56,0.14-1.02,0.56-1.42c0.21-0.21,0.37-0.45,0.56-0.67c0.14-0.16,0.3-0.29,0.54-0.21
		c0.59,0.19,1.21,0.37,1.72,0.76c0.33,0.24,0.56,0.56,0.53,1c-0.02,0.32-0.24,0.61-0.46,0.62c-0.25,0.02-0.46-0.16-0.57-0.51
		c-0.22-0.73-0.22-0.73-0.88-0.37c-0.24,0.14-0.49,0.11-0.75,0.11c-0.32,0.02-0.4,0.11-0.33,0.43c0.02,0.16,0.1,0.33,0.13,0.49
		c0.06,0.3-0.11,0.56-0.4,0.62c-0.32,0.06-0.54-0.1-0.59-0.43C9.74,26.48,9.74,26.33,9.74,26.17z"/>
	<path d="M45.31,38.84c-0.08,0.02-0.16,0.06-0.24,0.08c0.05-0.06,0-0.1-0.06-0.13c0.16-0.13,0.29-0.3,0.46-0.4
		C45.42,38.54,45.25,38.65,45.31,38.84z"/>
	<path d="M45.53,38.01c-0.02-0.02-0.05-0.06,0-0.1c0.02-0.02,0.06,0.02,0.06,0.02C45.6,37.96,45.57,37.98,45.53,38.01z"/>
	<path d="M17.36,26.43c0.19,1.72,0.37,3.11,0.53,4.49c0.22,2.02,0.67,4,1.45,5.88c0.54,1.26,1.29,2.42,1.99,3.58
		c0.57,0.94,1.29,2.01,2.01,2.84c0.13,0.14,0.05,0.11-0.13,0.21c-0.13,0.06-0.24,0.19-0.29,0.33c-0.1,0.21-0.16,0.18-0.29,0.02
		c-0.91-1.16-1.69-2.37-2.49-3.58c-1.62-2.42-2.53-5.1-2.96-7.98c-0.29-1.78-0.53-3.57-0.56-5.37c0-0.4-0.06-0.81-0.13-1.21
		c-0.02-0.18,0.02-0.3,0.18-0.41c0.86-0.68,1.69-1.34,2.53-2.02c0.11-0.1,0.16-0.06,0.25,0c0.3,0.24,0.61,0.51,0.94,0.75
		c1.74,1.19,4.03,1.23,5.64-0.72c0.92-1.13,1.48-2.41,1.56-3.87c0.02-0.19,0.06-0.25,0.25-0.25c1.4,0.02,2.8,0.02,4.21,0
		c0.22,0,0.25,0.08,0.25,0.29c0.06,1.21,0.43,2.31,1.16,3.3c0.49,0.64,1.07,1.26,1.77,1.69c1.04,0.61,2.13,0.53,3.23,0.11
		c0.64-0.24,1.15-0.75,1.69-1.16c0.25-0.19,0.46-0.19,0.7-0.02c0.86,0.56,1.61,1.26,2.44,1.85c0.11,0.08,0.13,0.18,0.11,0.3
		c-0.22,2.1-0.22,4.25-0.51,6.36c-0.46,3.33-1.62,6.4-3.49,9.22c-0.68,1.05-1.43,2.07-2.21,3.04c-0.11,0.14-0.21,0.22-0.4,0.14
		c-0.13-0.06-0.29-0.06-0.41,0.02c-0.14,0.06-0.29,0.02-0.33-0.06c-0.08-0.11,0.06-0.18,0.13-0.25c1.34-1.69,2.61-3.46,3.65-5.35
		c1.16-2.12,1.78-4.43,2.18-6.8c0.3-1.88,0.46-3.79,0.48-5.7c0-0.24-0.06-0.37-0.24-0.49c-0.46-0.3-0.91-0.64-1.32-0.99
		c-0.24-0.18-0.38-0.19-0.64-0.02c-0.78,0.56-1.61,1-2.58,1.18c-1.29,0.24-2.42-0.11-3.44-0.86c-1.39-1-2.18-2.41-2.68-4.03
		c-0.02-0.06-0.02-0.11-0.05-0.16c-0.18-0.68-0.22-0.72-0.94-0.64c-0.13,0.02-0.14,0.05-0.16,0.18c-0.02,0.78,0.19,1.5,0.64,2.15
		c0.13,0.19,0.14,0.33,0.02,0.56c-0.25,0.56-0.73,1-0.92,1.61c-0.05,0.13-0.16,0.02-0.21-0.02c-0.25-0.16-0.46-0.4-0.62-0.64
		c-0.22-0.33-0.41-0.68-0.62-1.02c-0.1-0.14-0.08-0.25,0.02-0.41c0.4-0.67,0.7-1.34,0.7-2.13c0-0.21-0.05-0.29-0.25-0.29
		c-0.24,0.02-0.54-0.06-0.73,0.05c-0.19,0.11-0.11,0.43-0.16,0.64c-0.49,1.86-1.5,3.35-3.09,4.44c-1.29,0.91-2.68,0.84-4.08,0.29
		c-0.54-0.22-1.02-0.56-1.51-0.84c-0.22-0.13-0.41-0.14-0.62,0.02c-0.25,0.19-0.54,0.38-0.81,0.56
		C17.66,25.55,17.26,26.02,17.36,26.43z"/>
	<path d="M22.61,43.78c0.24-0.02,0.46-0.86,0.7-0.56c0.49,0.54,2.33,2.58,2.87,3.15c0.02,0.02,0.06,0.06,0.08,0.08
		c0.81,0.75,1.62,1.5,2.45,2.23c0.33,0.32,0.72,0.61,1.12,0.86c0.16,0.1,0.24,0.1,0.4-0.02c1.29-1.08,4.65-4.25,5.8-5.51
		c0.13-0.14,1,0.02,1.07,0.11c0.06,0.1-1.88,2.21-1.93,2.26c-1.39,1.48-2.87,2.88-4.51,4.09c-0.06,0.05-0.13,0.08-0.19,0.13
		c-0.29,0.19-0.53,0.21-0.83-0.05c-1.56-1.29-3.19-2.53-4.6-4C24.92,46.49,22.68,43.92,22.61,43.78z"/>
	<g class="st0">
		<path d="M30.3,33.64c-0.38,0.78-1.18,1.98-2.24,1.98c-0.53,0-0.94-0.33-0.93-1.02c-0.39,0.56-1,1.02-1.7,1.03
			c-0.82,0.01-1.27-0.38-1.38-1.05c-0.36,0.69-1.08,1.06-1.66,1.05c-1.33,0-1.66-0.99-1.22-2.64c0.24-0.91,0.62-2.01,0.95-3.1
			c-0.66,0.78-1.85,0.6-2.02,1.3c-0.07,0.29,0.01,0.54,0.32,0.64c0.13,0.06,0.07,0.54-0.21,0.61c-0.91,0.08-1.59-0.58-1.39-1.34
			c0.35-1.42,2.55-0.88,3.68-2.24c0.25-0.27,1.2-0.2,1.29,0.07c-0.48,1.46-0.65,1.98-1.37,4.42c-0.21,0.71-0.31,1.47,0.34,1.47
			c0.54,0,1.1-0.75,1.41-1.7c0.43-1.33,0.75-2.39,1.29-4.18c0.3-0.35,1.36-0.1,1.3,0.21c-0.45,1.38-0.66,2.08-1.3,4.2
			c-0.21,0.71-0.31,1.5,0.34,1.47c0.62-0.02,1.22-0.95,1.67-2.31l1.04-3.58c0.38-0.34,1.33-0.09,1.3,0.22
			c-0.16,0.5-0.9,2.84-1.26,4.02c-0.26,0.9-0.43,1.62-0.05,1.65c0.43,0.03,1.06-0.62,1.42-1.4C29.98,33.29,30.35,33.54,30.3,33.64z"
			/>
	</g>
	<g class="st0">
		<path d="M40.32,32.02c-0.05,2.23-1.26,3.62-2.83,3.6c-0.79,0-1.39-0.32-1.84-0.65c-0.37,0.42-0.89,0.65-1.57,0.66
			c-1.04,0.01-1.69-0.44-1.63-1.16c0.1-1.16,1.62-1.33,2.61-0.72c0.48-1.21,0.75-3.04,1.55-3.72c0.29-0.21,1.01-0.04,1,0.17
			c-0.77,1-1.04,3.05-1.62,4.1c0.49,0.38,1.12,0.58,1.58,0.51c0.92-0.14,1.45-1.3,1.47-2.78c0.02-1.34-0.44-2.56-2.18-2.56
			c-1.17,0-2.42,0.96-1.84,2.11c0.03,0.2-0.43,0.65-0.83,0.5c-0.78-0.53-0.76-1.6-0.11-2.34c0.66-0.75,1.87-1.1,3.01-1.07
			C38.85,28.71,40.38,29.82,40.32,32.02z M33.98,34.86c0.31,0.01,0.63-0.19,0.83-0.52c-0.21-0.12-0.49-0.25-0.73-0.25
			C33.43,34.1,33.4,34.85,33.98,34.86z"/>
	</g>
	<g class="st0">
		<path d="M32.9,39.22c0.62-0.05,0.84-0.33,0.82-0.86c0.13-0.19,0.54-0.22,0.7-0.08c0.37,0.53,0.11,1.32-0.25,1.59
			c-0.63,0.49-1.37,0.42-2.15,0.32c-0.19,0.63-0.4,1.37-0.73,2.51c-0.57,1.73-0.9,2.84-2.58,2.85c-1.31,0.01-1.77-0.91-1.61-1.65
			c0.09-0.42,0.37-0.76,0.8-0.92c0.33-0.05,0.76,0.28,0.7,0.54c-0.47,0.54-0.3,1.27,0.24,1.25c0.5-0.01,0.79-0.94,1.11-2.05
			c0.36-1.24,0.6-2.16,0.84-2.92c-0.66-0.25-1.3-0.46-1.73-0.25c-0.73,0.32-0.41,1.3,0.42,0.76c0.23-0.02,0.4,0.28,0.39,0.49
			c-0.71,0.84-1.92,0.67-2.34-0.12c-0.34-0.62-0.1-1.59,0.86-1.91C30.2,38.13,31.38,39.33,32.9,39.22z"/>
	</g>
</g>
</svg>
