<?xml version="1.0" encoding="utf-8"?>
<!-- Generator: Adobe Illustrator 28.1.0, SVG Export Plug-In . SVG Version: 6.00 Build 0)  -->
<svg version="1.1" id="Слой_1" xmlns="http://www.w3.org/2000/svg" xmlns:xlink="http://www.w3.org/1999/xlink" x="0px" y="0px"
	 viewBox="0 0 724.9 650.3" style="enable-background:new 0 0 724.9 650.3;" xml:space="preserve">
<style type="text/css">
	.st0{fill:#1D1A42;}
	.st1{fill:#C3C1CC;}
	.st2{fill:#FEFEFE;}
	.st3{fill:#FC6577;}
	.st4{fill:url(#SVGID_1_);}
	.st5{fill:#A49CC3;}
	.st6{fill:#CA274D;}
	.st7{fill:url(#SVGID_00000111180947401807983430000004633588803231951499_);}
	.st8{fill:#757097;}
	.st9{fill:url(#SVGID_00000054224717948180628490000015029246556023900547_);}
	.st10{fill:#F58D3F;}
	.st11{fill:#FFFFFF;}
	.st12{fill:#FDC378;}
</style>
<path class="st0" d="M478,16.2c4.7-0.2,9.4-0.1,14,0.1c46.8,1.9,94,20,126,55c24.3,26.6,37.9,62.3,39.9,98.1
	c0.4,7.2,0,14.4-0.3,21.6l20.5,0c12.9,0,25.7-0.6,35.6,9.1c6.4,6.2,9.7,14.8,9.8,23.7c0,4.1-1.1,8.1-2.4,11.9
	c-2.5,7.3-5.5,14.4-8.4,21.6c-7.1,18-14.5,36-21.5,54l-20.6,54.1c-3.1,8-5.8,16.4-9.4,24.2c-0.6,1.2-1.2,2.5-1.9,3.6
	c-0.7,1.2-1.4,2.3-2.2,3.5c-0.8,1.1-1.6,2.2-2.5,3.2c-0.9,1-1.8,2.1-2.8,3c-6.3,6.3-15.1,10.4-23.9,11.8c-11.2,1.7-23.7,0.8-35,0.8
	l-64.9,0L287,415c3.6,16.3,8.8,32.4,13.6,48.3c27.8,0.4,55.8-0.3,83.6-0.3l186.1-0.1l69,0c11.6,0,24.8-1.1,36.2,0.4
	c0.9,0.1,1.8,0.3,2.8,0.5s1.8,0.4,2.7,0.7c0.9,0.3,1.8,0.6,2.6,0.9c0.9,0.3,1.7,0.7,2.6,1.1c0.8,0.4,1.7,0.8,2.5,1.3
	c0.8,0.5,1.6,1,2.4,1.5c0.8,0.5,1.5,1.1,2.2,1.7s1.4,1.2,2.1,1.9c0.4,0.4,0.8,0.8,1.2,1.2c0.4,0.4,0.8,0.8,1.2,1.3
	c0.4,0.4,0.7,0.9,1.1,1.3c0.4,0.4,0.7,0.9,1,1.4c0.3,0.5,0.6,0.9,1,1.4c0.3,0.5,0.6,1,0.9,1.5s0.6,1,0.8,1.5c0.3,0.5,0.5,1,0.7,1.5
	c0.2,0.5,0.5,1,0.7,1.6c0.2,0.5,0.4,1.1,0.6,1.6c0.2,0.5,0.3,1.1,0.5,1.6c0.2,0.5,0.3,1.1,0.4,1.7c0.1,0.6,0.2,1.1,0.3,1.7
	c0.1,0.6,0.2,1.1,0.3,1.7c0.1,0.6,0.1,1.1,0.2,1.7c0,0.6,0.1,1.1,0.1,1.7c0,0.6,0,1.1,0,1.7c0,0.6,0,1.1-0.1,1.7
	c0,0.6-0.1,1.1-0.2,1.7c-0.1,0.6-0.2,1.1-0.3,1.7c-0.1,0.6-0.2,1.1-0.3,1.7c-0.1,0.5-0.3,1.1-0.4,1.6c-0.2,0.5-0.3,1.1-0.5,1.6
	c-0.2,0.5-0.4,1.1-0.6,1.6c-0.2,0.5-0.4,1-0.7,1.6c-0.2,0.5-0.5,1-0.7,1.5c-0.3,0.5-0.5,1-0.8,1.5c-0.3,0.5-0.6,1-0.9,1.4
	c-0.3,0.5-0.6,0.9-0.9,1.4c-0.3,0.5-0.7,0.9-1,1.4c-0.3,0.4-0.7,0.9-1.1,1.3c-0.4,0.4-0.8,0.8-1.1,1.2
	c-11.5,11.9-27.1,10.3-42.2,10.3l-26.4,0.3c9.2,11.8,16.2,22.6,18.2,37.7c2.1,16.3-3,31.5-12.9,44.3c-0.6,0.8-1.2,1.6-1.9,2.4
	c-0.6,0.8-1.3,1.5-2,2.3c-0.7,0.7-1.4,1.5-2.1,2.2c-0.7,0.7-1.5,1.4-2.2,2c-0.8,0.7-1.5,1.3-2.3,1.9c-0.8,0.6-1.6,1.2-2.4,1.8
	c-0.8,0.6-1.6,1.2-2.5,1.7c-0.8,0.5-1.7,1.1-2.6,1.6c-0.9,0.5-1.8,1-2.6,1.4c-0.9,0.5-1.8,0.9-2.7,1.3c-0.9,0.4-1.8,0.8-2.8,1.2
	c-0.9,0.4-1.9,0.7-2.8,1c-1,0.3-1.9,0.6-2.9,0.9c-1,0.3-1.9,0.5-2.9,0.8c-1,0.2-2,0.4-2.9,0.6c-1,0.2-2,0.3-3,0.5
	c-14.9,1.9-31.8-1.1-43.9-10.5c-26.7,0.7-53.6,0.3-80.4,0.3c-40.2,0-80.5-0.6-120.7-0.2c-8.2,5.8-17.1,9.8-27.1,11.4
	c-1,0.2-2.1,0.3-3.1,0.4c-1,0.1-2.1,0.2-3.1,0.3c-1,0.1-2.1,0.1-3.1,0.1c-1,0-2.1,0-3.1-0.1c-1,0-2.1-0.1-3.1-0.2
	c-1-0.1-2.1-0.2-3.1-0.4c-1-0.1-2.1-0.3-3.1-0.5c-1-0.2-2.1-0.4-3.1-0.7c-1-0.3-2-0.5-3-0.8c-1-0.3-2-0.6-3-1c-1-0.4-2-0.7-2.9-1.1
	c-1-0.4-1.9-0.8-2.9-1.3c-0.9-0.5-1.9-0.9-2.8-1.4c-0.9-0.5-1.8-1-2.7-1.6c-0.9-0.5-1.8-1.1-2.6-1.7c-0.9-0.6-1.7-1.2-2.6-1.8
	c-17.3-0.6-35,0-52.3,0.1c-8.3,0.1-17.2,0.8-25.3-0.7c-0.3-0.2-0.6-0.5-0.9-0.7c-3-2.4-5.2-5.3-5.5-9.3c-0.2-3,0.7-5.9,2.8-8.1
	c1.4-1.4,3.1-2.3,5-2.7c6.6-1.2,13.9-0.6,20.6-0.7l36.3-0.1c-3.9-8.4-7-17.6-7.7-26.9c-1.2-18.1,6.8-32.9,18.3-46
	c-9.8-0.3-19.6-0.2-29.4-0.1c-15.7,0.2-30.9,1.8-43.3-10.1c-6.2-6-9.9-15.5-9.9-24.2c0-0.6,0-1.1,0-1.7c0-0.6,0.1-1.1,0.1-1.7
	c0.1-0.6,0.1-1.1,0.2-1.7s0.2-1.1,0.3-1.6c0.1-0.5,0.2-1.1,0.4-1.6c0.1-0.5,0.3-1.1,0.4-1.6c0.2-0.5,0.3-1.1,0.5-1.6
	c0.2-0.5,0.4-1,0.6-1.6c0.2-0.5,0.4-1,0.7-1.5c0.2-0.5,0.5-1,0.7-1.5c0.3-0.5,0.5-1,0.8-1.5c0.3-0.5,0.6-1,0.9-1.4
	c0.3-0.5,0.6-0.9,1-1.4c0.3-0.4,0.7-0.9,1-1.3c0.4-0.4,0.7-0.9,1.1-1.3c0.4-0.4,0.8-0.8,1.1-1.2c10.4-10.5,22-10.7,36-10.7
	c-5.5-22.1-12.1-43.8-18.2-65.7c-12.3-44.5-25-88.9-37.9-133.3l-20.3-70.4c-4.2-14.6-8.1-29.6-13.1-43.9c-1.1-3.1-2.5-7-5.2-8.8
	c-6.4-4.3-20.4-13.5-27.4-15.3c-4.4-1.2-10.1-0.2-14.7-0.2c-13.7,0.2-48.5,1.8-59.8-2.5c-9.2-3.5-17.4-11.2-21.4-20.2
	c-4.1-9.3-4.6-20.3-0.9-29.8c3.6-9.3,10.9-16.6,20.1-20.6c1.4-0.6,2.9-1.2,4.4-1.6c1.5-0.4,3-0.8,4.6-1c9.8-1.3,20.4-0.6,30.2-0.6
	c10.7-0.1,21.9-0.8,32.6,0.2c3.6,0.3,7.3,1.1,10.7,2.4c9.9,4,15.2,11.3,19.3,20.8c15.6,0.5,34-2.5,48.1,5.2
	c16.3,8.9,20.1,24.8,24.7,41.4c2.3,8.3,4.7,16.5,7.1,24.7C265.9,88.6,352.6,38.4,429.7,22C445.6,18.6,461.8,17,478,16.2z"/>
<path class="st1" d="M224.4,510.1c-5.7,0.1-11.6,0.5-16.2-3.6c-0.3-0.2-0.5-0.5-0.8-0.8c-0.2-0.3-0.5-0.6-0.7-0.9
	c-0.2-0.3-0.4-0.6-0.6-0.9c-0.2-0.3-0.4-0.6-0.5-1c-0.2-0.3-0.3-0.7-0.4-1c-0.1-0.3-0.2-0.7-0.3-1.1c-0.1-0.4-0.1-0.7-0.2-1.1
	c0-0.4-0.1-0.7-0.1-1.1c-0.1-3.7,1.5-7.3,4.1-9.8c4.5-4.4,9.7-3.7,15.5-3.5C224.3,493.6,224.3,501.8,224.4,510.1z"/>
<path class="st2" d="M230.1,214.4c16.1-0.7,32.5-0.3,48.7-0.2l2.7,11.5c-2,1.3-16,0.5-19.3,0.5c-9.5-0.2-19-0.1-28.6,0.3
	C231.8,222.7,231,218.3,230.1,214.4z"/>
<path class="st3" d="M417.4,351.9c23.3,4.5,47.3,2.5,70.3-2.6l0,16.2c-20.4-0.1-49.8-3.3-69.4-9.1
	C417.4,355.2,417.5,353.4,417.4,351.9z"/>
<linearGradient id="SVGID_1_" gradientUnits="userSpaceOnUse" x1="594.5056" y1="92.0355" x2="604.0835" y2="112.984" gradientTransform="matrix(1 0 0 -1 0 655.9155)">
	<stop  offset="0" style="stop-color:#CBC9DD"/>
	<stop  offset="1" style="stop-color:#FFFFFF"/>
</linearGradient>
<path class="st4" d="M572.3,539.3c1.5-0.5,3.1-1,4.7-1.3c1.6-0.3,3.2-0.5,4.8-0.6c11.8-0.1,21.6,2.5,30.3,10.9
	c7.2,6.9,10.6,15.8,11.3,25.6c-2.8-0.7-6,0.2-8.7-0.5c-2.3-0.7-4.3-2.5-6.7-3l-0.8,1.7c-0.3-1.8-0.9-3.5-1.6-5.1
	c-2.7-5.9-7.5-9.8-13.4-12.2c-3.7-1-6.5-0.8-10.3-0.2c0.4-0.5,0.3-0.9,0.4-1.4c-0.7-1.5-2.4-2.4-3.6-3.5
	C575.5,546.8,572.6,543.9,572.3,539.3z"/>
<path class="st5" d="M572.3,539.3c1.5-0.5,3.1-1,4.7-1.3c1.6-0.3,3.2-0.5,4.8-0.6c1.8,8,5.2,11.6,10.4,17.4c-3.7-1-6.5-0.8-10.3-0.2
	c0.4-0.5,0.3-0.9,0.4-1.4c-0.7-1.5-2.4-2.4-3.6-3.5C575.5,546.8,572.6,543.9,572.3,539.3z"/>
<path class="st2" d="M417.3,213.8c14.1-0.2,28.3-0.2,42.4-0.1c9.4,0,19-0.2,28.4,0.3c0,4.1,0.1,8.3,0,12.4
	c-23.4,0.6-47.1-0.1-70.5-0.1C417.3,222.1,417.2,218,417.3,213.8z"/>
<path class="st6" d="M60.8,104.4c-8.9-0.1-20.3,1.6-27.2-5.2c-3.5-3.4-5.7-8.1-5.7-13c0-0.5,0-1.1,0.1-1.6c0.1-0.5,0.1-1.1,0.2-1.6
	c0.1-0.5,0.2-1,0.4-1.5c0.2-0.5,0.3-1,0.5-1.5c0.2-0.5,0.4-1,0.7-1.4c0.3-0.5,0.5-0.9,0.8-1.4c0.3-0.4,0.6-0.9,1-1.3
	c0.3-0.4,0.7-0.8,1.1-1.2c6.3-6.2,15.6-4.9,23.7-4.8C57,81.4,58.7,93.1,60.8,104.4z"/>
<path class="st2" d="M627.6,214l45.2,0c7,0,15-0.9,21.9,0.4c0.5,0.1,0.9,0.2,1.4,0.4c0.4,0.2,0.9,0.3,1.3,0.6
	c0.4,0.2,0.8,0.5,1.2,0.8c0.4,0.3,0.7,0.6,1.1,1c1.6,1.7,2.7,4.4,2.4,6.8c-0.1,1-0.4,1.8-0.8,2.7c-25.6,0.5-51.3,0.1-76.9,0.1
	C625.6,222.4,626.7,218.2,627.6,214z"/>
<path class="st2" d="M301.4,214.1c31.4-0.7,62.8-0.1,94.2-0.1c0.1,4.1,0.1,8.1,0.1,12.2l-91.4,0.3
	C303.1,222.4,302.3,218.2,301.4,214.1z"/>
<path class="st2" d="M509.5,214.2c31.6-0.7,63.3-0.2,94.9-0.1c-1.3,4.1-2.7,8.2-4.3,12.2c-30.1-0.8-60.3,0.4-90.5,0.2
	C509.6,222.4,509.5,218.3,509.5,214.2z"/>
<path class="st6" d="M510,365.4c17.5-0.1,34.9-0.4,52.4-0.4l-7.5,28.1c-15-0.2-30-0.3-45-0.2C509.9,383.9,509.2,374.4,510,365.4z"/>
<linearGradient id="SVGID_00000135651043088512076880000012240163858973956277_" gradientUnits="userSpaceOnUse" x1="314.8994" y1="77.3672" x2="326.1972" y2="117.9187" gradientTransform="matrix(1 0 0 -1 0 655.9155)">
	<stop  offset="0" style="stop-color:#968EBC"/>
	<stop  offset="1" style="stop-color:#CBC3DC"/>
</linearGradient>
<path style="fill:url(#SVGID_00000135651043088512076880000012240163858973956277_);" d="M286.5,542.2c9-6.3,19.1-9.4,30.2-7.4
	c11.2,2,21.8,9.1,28.2,18.5c6.2,9.2,9.1,20.1,6.9,31.1c-0.6,3.3-1.9,7.3-3.7,10.1l-0.3-0.3c0-0.8,0.1-1.1,0.5-1.8
	c0.4-0.7,0.8-1.3,1.1-2c-1.3-4.8-11.8-6.8-15.7-9.7c-0.1-0.1-0.3-0.2-0.4-0.3c-0.4,1.3-0.9,2.6-1.4,3.9l-0.7,0.1
	c0.3-0.9,0.6-1.8,0.8-2.7c1.7-5.8,1.1-11.8-1.9-17.1c-0.2-0.3-0.4-0.6-0.6-0.9c-0.2-0.3-0.4-0.6-0.6-0.9c-0.2-0.3-0.4-0.6-0.7-0.9
	c-0.2-0.3-0.5-0.6-0.7-0.8c-0.2-0.3-0.5-0.5-0.8-0.8c-0.3-0.3-0.5-0.5-0.8-0.8c-0.3-0.2-0.6-0.5-0.8-0.7c-0.3-0.2-0.6-0.5-0.9-0.7
	c-0.3-0.2-0.6-0.4-0.9-0.6c-0.3-0.2-0.6-0.4-0.9-0.6c-0.3-0.2-0.6-0.4-1-0.5c-0.3-0.2-0.7-0.3-1-0.5c-0.3-0.2-0.7-0.3-1-0.4
	c-0.3-0.1-0.7-0.3-1-0.4c-0.3-0.1-0.7-0.2-1-0.3c-0.4-0.1-0.7-0.2-1.1-0.3c-6.6-1.6-12.1-0.1-17.8,3.3
	C294.7,552.3,290.8,547.1,286.5,542.2z"/>
<path class="st6" d="M647.4,364.2c-3.6,10-7,21.4-17.3,26.5c-2.6,1.3-5.4,2-8.2,2.3c-5.4,0.6-11.1,0.2-16.6,0.1
	c-8.7-0.1-17.4-0.2-26.1-0.1c1.7-9.4,4.1-18.5,6.6-27.7c6.6,0.1,13.3-0.6,19.9-0.7C619.6,364.4,633.5,364.2,647.4,364.2z"/>
<path class="st3" d="M56.4,69.9c9.8,0,34.6-1.3,42.6,0.7c3,0.7,5.7,2.2,7.9,4.4c0.4,0.4,0.7,0.8,1.1,1.2c0.3,0.4,0.7,0.9,1,1.3
	c0.3,0.5,0.6,0.9,0.8,1.4c0.3,0.5,0.5,1,0.7,1.5c0.2,0.5,0.4,1,0.5,1.6c0.1,0.5,0.3,1.1,0.4,1.6c0.1,0.5,0.2,1.1,0.2,1.6
	c0,0.5,0.1,1.1,0,1.6c0,0.6-0.1,1.2-0.1,1.8c-0.1,0.6-0.2,1.2-0.3,1.7c-0.1,0.6-0.3,1.1-0.5,1.7c-0.2,0.6-0.4,1.1-0.7,1.6
	c-0.2,0.5-0.5,1.1-0.8,1.6c-0.3,0.5-0.6,1-1,1.5c-0.3,0.5-0.7,0.9-1.1,1.4c-0.4,0.4-0.8,0.9-1.2,1.3c-0.6,0.5-1.2,1-1.8,1.5
	s-1.3,0.9-2,1.2c-0.7,0.4-1.4,0.7-2.1,1c-0.7,0.3-1.5,0.5-2.2,0.7c-7.1,1.8-28.3,0.6-37,0.6C58.7,93.1,57,81.4,56.4,69.9z"/>
<path class="st6" d="M417.6,393.1c-0.1-13.6-1.1-27.7-0.3-41.2c0.1,1.5,0,3.3,0.9,4.5c19.7,5.8,49,9,69.4,9.1
	c0,9.1-0.1,18.3-0.4,27.4L417.6,393.1z"/>
<path class="st3" d="M582,296.4c-6.1,22.9-12.1,46.2-19.6,68.7c-17.5-0.1-34.9,0.2-52.4,0.4l0.2-22.5
	C537.5,333.5,561.6,316.6,582,296.4z"/>
<path class="st6" d="M327.8,307.7c5.1,2.9,9.6,8.4,14.5,11.9c16.7,12,33.8,20.1,53.3,26.4c-0.4,15.6-0.1,31.3-0.3,47
	c-14.4,0-28.9,0-43.3,0.3c-2.5-11.5-6.3-22.9-9.6-34.2C337.4,342,332.5,324.9,327.8,307.7z"/>
<path class="st8" d="M277.7,550.7c2.6-3.2,5.5-6,8.8-8.6c4.3,4.9,8.2,10.1,11.9,15.5c5.6-3.4,11.2-4.9,17.8-3.3
	c0.4,0.1,0.7,0.2,1.1,0.3c0.4,0.1,0.7,0.2,1,0.3c0.3,0.1,0.7,0.3,1,0.4c0.3,0.1,0.7,0.3,1,0.4c0.3,0.2,0.7,0.3,1,0.5
	c0.3,0.2,0.6,0.4,1,0.5c0.3,0.2,0.6,0.4,0.9,0.6c0.3,0.2,0.6,0.4,0.9,0.6c0.3,0.2,0.6,0.4,0.9,0.7c0.3,0.2,0.6,0.5,0.8,0.7
	c0.3,0.2,0.5,0.5,0.8,0.8c0.3,0.3,0.5,0.5,0.8,0.8c0.2,0.3,0.5,0.5,0.7,0.8c0.2,0.3,0.5,0.6,0.7,0.9c0.2,0.3,0.4,0.6,0.6,0.9
	c0.2,0.3,0.4,0.6,0.6,0.9c3,5.2,3.6,11.3,1.9,17.1c-0.3,0.9-0.5,1.8-0.8,2.7l0.7-0.1c0.5-1.3,1-2.6,1.4-3.9c0.1,0.1,0.3,0.2,0.4,0.3
	c4,2.9,14.4,4.9,15.7,9.7c-0.3,0.7-0.7,1.3-1.1,2c-0.4,0.7-0.5,1-0.5,1.8l0.3,0.3c-1,2.3-2.6,4.6-4.1,6.6c-6.9,9-16.8,14.6-28.1,16
	c-11.4,1.4-22.4-2-31.4-9.1c-0.5-0.4-1-0.9-1.5-1.3c-0.5-0.4-1-0.9-1.5-1.4c-0.5-0.5-0.9-1-1.4-1.5c-0.5-0.5-0.9-1-1.3-1.5
	c-0.4-0.5-0.8-1-1.3-1.6c-0.4-0.5-0.8-1.1-1.2-1.6c-0.4-0.6-0.7-1.1-1.1-1.7c-0.3-0.6-0.7-1.2-1-1.7c-0.3-0.6-0.6-1.2-0.9-1.8
	c-0.3-0.6-0.6-1.2-0.8-1.8c-0.3-0.6-0.5-1.2-0.7-1.9c-0.2-0.6-0.4-1.3-0.6-1.9c-0.2-0.6-0.4-1.3-0.6-1.9c-0.2-0.7-0.3-1.3-0.5-2
	c-0.1-0.7-0.3-1.3-0.4-2c-0.1-0.7-0.2-1.3-0.3-2C268.2,569.4,270.8,559.3,277.7,550.7z"/>
<path class="st5" d="M277.7,550.7c2.6-3.2,5.5-6,8.8-8.6c4.3,4.9,8.2,10.1,11.9,15.5c-4.1,3.6-7.2,7.1-8.9,12.4
	C284.4,564.3,281.3,557.5,277.7,550.7z"/>
<path class="st0" d="M298.4,557.7c5.6-3.4,11.2-4.9,17.8-3.3c0.4,0.1,0.7,0.2,1.1,0.3c0.4,0.1,0.7,0.2,1,0.3c0.3,0.1,0.7,0.3,1,0.4
	c0.3,0.1,0.7,0.3,1,0.4c0.3,0.2,0.7,0.3,1,0.5c0.3,0.2,0.6,0.4,1,0.5c0.3,0.2,0.6,0.4,0.9,0.6c0.3,0.2,0.6,0.4,0.9,0.6
	c0.3,0.2,0.6,0.4,0.9,0.7c0.3,0.2,0.6,0.5,0.8,0.7c0.3,0.2,0.5,0.5,0.8,0.8c0.3,0.3,0.5,0.5,0.8,0.8c0.2,0.3,0.5,0.5,0.7,0.8
	c0.2,0.3,0.5,0.6,0.7,0.9c0.2,0.3,0.4,0.6,0.6,0.9c0.2,0.3,0.4,0.6,0.6,0.9c3,5.2,3.6,11.3,1.9,17.1c-0.3,0.9-0.5,1.8-0.8,2.7
	c-0.3,0.4-0.5,0.7-0.8,1.1c-1.4,2.1-2.7,4-4.6,5.7c-4.8,4.2-10.9,6.1-17.2,5.4c-5.7-0.6-10.9-3.5-14.5-8c-4.4-5.5-5.3-11.8-4.4-18.5
	C291.2,564.8,294.3,561.3,298.4,557.7z"/>
<path class="st5" d="M307.1,570.3c1.4-1.4,3-2.7,5.1-2.6c1.8,0,3.2,0.8,4.4,2.1c1.3,1.5,1.6,3.1,1.9,5
	C315.1,574.4,310.2,571.8,307.1,570.3z"/>
<path class="st8" d="M318.5,574.8c-0.1,0.5-0.3,1.1-0.5,1.6c-0.6,2-1.7,3.8-3.7,4.6c-1.5,0.6-3.2,0.4-4.6-0.3
	c-1.9-0.9-3.6-2.9-4.1-5c-0.5-2.1,0.5-3.7,1.5-5.5C310.2,571.8,315.1,574.4,318.5,574.8z"/>
<linearGradient id="SVGID_00000054237838437290513060000002370628107943862439_" gradientUnits="userSpaceOnUse" x1="550.3031" y1="62.6332" x2="611.9225" y2="92.8449" gradientTransform="matrix(1 0 0 -1 0 655.9155)">
	<stop  offset="0" style="stop-color:#59518F"/>
	<stop  offset="1" style="stop-color:#B1B0CC"/>
</linearGradient>
<path style="fill:url(#SVGID_00000054237838437290513060000002370628107943862439_);" d="M572.3,539.3c0.3,4.6,3.2,7.5,6.4,10.4
	c1.2,1.1,2.9,2,3.6,3.5c-0.1,0.6-0.1,1-0.4,1.4c3.7-0.6,6.5-0.8,10.3,0.2c5.9,2.4,10.7,6.3,13.4,12.2c0.7,1.6,1.3,3.3,1.6,5.1
	l0.8-1.7c2.4,0.4,4.4,2.3,6.7,3c2.7,0.8,5.9-0.1,8.7,0.5l-0.2,6.8c-0.1,1.1-0.2,2.3-0.4,3.4c-0.2,1.1-0.4,2.2-0.7,3.3
	c-0.3,1.1-0.6,2.2-1,3.2c-0.4,1.1-0.8,2.1-1.3,3.1c-4.4,9.3-13.1,16.5-22.7,19.9c-9.5,3.3-20.9,2.9-29.9-1.5
	c-9.3-4.6-16.4-13.4-19.7-23.1c-3-9.1-2.6-20.1,1.8-28.7C554.3,550.5,561.8,542.7,572.3,539.3z"/>
<path class="st1" d="M607.2,572.1l0.8-1.7c2.4,0.4,4.4,2.3,6.7,3c2.7,0.8,5.9-0.1,8.7,0.5l-0.2,6.8c-0.4,0.5-0.6,1.1-1.1,1.5
	c-2,1.7-10.6-3.8-13.7-3.1l-0.5,1.1l-0.5-1.2C607.7,576.7,607.4,574.4,607.2,572.1z"/>
<path class="st0" d="M581.9,554.6c3.7-0.6,6.5-0.8,10.3,0.2c5.9,2.4,10.7,6.3,13.4,12.2c0.7,1.6,1.3,3.3,1.6,5.1
	c0.3,2.4,0.5,4.6,0.3,7c-0.2,0.9-0.5,1.8-0.8,2.6c-2.4,6.5-6.9,12.1-13.3,15.1c-4.8,2.2-9.9,2.3-14.8,0.3
	c-6.1-2.4-11.8-7.3-14.3-13.4c-0.2-0.6-0.4-1.2-0.6-1.8s-0.3-1.3-0.4-1.9c-0.1-0.6-0.2-1.3-0.3-1.9c-0.1-0.6-0.1-1.3-0.1-1.9
	c0-0.6,0.1-1.3,0.1-1.9c0.1-0.6,0.2-1.3,0.3-1.9c0.1-0.6,0.3-1.3,0.5-1.9s0.4-1.2,0.7-1.8C567.8,561,574.7,557.4,581.9,554.6z"/>
<path class="st5" d="M582.4,571.8c2.1-0.1,3.7,0,5.4,1.4c1,0.9,1.6,2.1,1.6,3.4c0,2.2-1.2,3.5-2.6,5c-1.4,0.6-2.4,1.2-4,0.9
	c-1.1-0.8-1.6-1.3-1.9-2.7C580.1,577.1,581,574.3,582.4,571.8z"/>
<path class="st2" d="M284.7,111.4c22.8-15.9,46.7-29,71.9-40.5c48.7-22.3,103.9-39.4,157.9-29.9c37.3,6.6,74.9,26,97,57.5
	c0.6,0.8,1.1,1.7,1.7,2.5c0.6,0.8,1.1,1.7,1.6,2.6c0.5,0.9,1.1,1.7,1.6,2.6c0.5,0.9,1,1.7,1.5,2.6c0.5,0.9,1,1.8,1.5,2.7
	c0.5,0.9,0.9,1.8,1.4,2.7c0.5,0.9,0.9,1.8,1.3,2.7c0.4,0.9,0.9,1.8,1.3,2.8c0.4,0.9,0.8,1.8,1.2,2.8c0.4,0.9,0.8,1.9,1.2,2.8
	c0.4,0.9,0.7,1.9,1.1,2.8c0.4,0.9,0.7,1.9,1,2.9c0.3,1,0.7,1.9,1,2.9c0.3,1,0.6,1.9,0.9,2.9c0.3,1,0.6,1.9,0.8,2.9
	c0.3,1,0.5,2,0.8,2.9c0.2,1,0.5,2,0.7,3c0.2,1,0.4,2,0.6,3c0.2,1,0.4,2,0.6,3c0.2,1,0.4,2,0.5,3c0.2,1,0.3,2,0.4,3
	c0.1,1,0.3,2,0.4,3c0.1,1,0.2,2,0.3,3c0.1,1,0.2,2,0.2,3c0.1,1,0.1,2,0.2,3c0,1,0.1,2,0.1,3c0,1,0,2,0,3s0,2,0,3c0,1-0.1,2-0.1,3
	c0,1-0.1,2-0.2,3c-0.1,1-0.1,2-0.2,3c-0.1,1-0.2,2-0.3,3l-6.5,0.1c-0.8-22.2-4.5-40.3-13.7-60.6c-3.6-8-7.9-16.1-13.1-23.1
	c-14.8-19.9-38.1-36-61.2-44.6c-45.1-16.7-88.2-12.1-133.4,0.9c-10,2.9-20.9,5.3-30.3,9.6c-27.2,10-54.2,22.1-80.5,34.4
	C292.9,108.8,288.1,111.5,284.7,111.4z"/>
<path class="st3" d="M509.7,226.5c30.1,0.2,60.3-1,90.5-0.2c-0.9,2.4-1.9,4.7-2.9,7.1c-16.1,38.7-49.2,69.6-87.6,85.4L509.7,226.5z"
	/>
<path class="st3" d="M304.4,226.5l91.4-0.3c-0.4,31.9,0.3,63.9-0.1,95.8c-32.8-9.4-61.8-34.1-78.3-63.5
	C311.6,248.2,307.6,237.7,304.4,226.5z"/>
<path class="st3" d="M417.5,226.3c23.5,0,47.1,0.7,70.5,0.1c-0.6,11.9-0.2,23.9-0.2,35.7l0,64.3c-23.3,6.1-46.2,6.2-70,2.6
	C417.1,294.8,417.9,260.5,417.5,226.3z"/>
<path class="st6" d="M281.5,225.6c3,11.1,6.4,22.2,9,33.4c3.2,10.5,5.9,21.3,9,31.9l15.9,55.4c4.5,15.6,9.9,31,13.9,46.8
	c-16.2-0.7-32.5-0.5-48.7-0.5c-1.9-9.1-5-18.3-7.4-27.3L253,294.5l-12.6-45.7c-2.1-7.4-3.9-15.3-6.7-22.4c9.5-0.4,19-0.5,28.6-0.3
	C265.5,226.1,279.6,226.9,281.5,225.6z"/>
<path class="st3" d="M281.5,225.6c3,11.1,6.4,22.2,9,33.4c-10.8-9.4-19.8-21.4-28.3-32.9C265.5,226.1,279.6,226.9,281.5,225.6z"/>
<path class="st3" d="M624.4,226.6c25.6,0,51.3,0.4,76.9-0.1c-9.3,19.5-16.7,40.4-24.5,60.7c-10.1,25.6-19.9,51.3-29.5,77.1
	c-13.9,0-27.8,0.2-41.7,0.4c-6.6,0.2-13.3,0.8-19.9,0.7c6-19.6,11-39.7,16.6-59.5C609.7,279.5,617.5,253.1,624.4,226.6z"/>
<path class="st2" d="M140.9,94.7c7.5-0.2,17.7-1.6,24.7,1.5c6.5,2.9,9.4,7.7,11.7,14.1c4.7,13.2,8,27,11.9,40.5l26,91.4l36.9,129.3
	l15.7,56.2c2.4,8.9,5.3,17.8,7.3,26.8c0.6,2.6,0.9,5.2-0.3,7.7c-2.1,2.1-12.2,1.2-15.3,1.2c-2.5,0.1-6.1,0.6-8.2-0.9
	c-2.1-1.5-6.3-18.8-7.2-22l-65.5-231.6c-4.8-16.6-9.4-33.2-14.4-49.8c-2.7-9.1-4.8-19.6-9.8-27.7c-6.1-9.9-21-16-30.8-21.8
	c3.1-4.7,5.6-9.4,7.8-14.6L140.9,94.7z"/>
<path class="st10" d="M296.1,107.5c26.3-12.3,53.2-24.4,80.5-34.4c-1.9,4.5-4.5,8.6-6.4,13.1c-10.7,25.8-14.8,54.3-4.1,80.7
	c2.1,5.2,4.6,11.3,8,15.7c2.1,2.8,5,5.4,6.8,8.4l-90.9,0l-66.6,0.2c-2.5-6.8-4.5-13.9-6.3-20.9c3.1-4,7.1-7.7,10.7-11.4
	c4.3-4.4,8.8-8.7,13.3-12.9c4.6-4.2,9.2-8.3,13.9-12.2c4.7-4,9.6-7.8,14.5-11.5c4.9-3.7,9.9-7.3,15-10.8
	C288.1,111.5,292.9,108.8,296.1,107.5z"/>
<path class="st2" d="M224.3,485.3c9-0.3,18.1,0,27.1,0l52-0.3l183.6,0.3l126.4-0.2l35.2,0c6.8,0,13.7-0.3,20.4,0.1
	c4,0.2,8.1,1.1,11.1,3.8c2.5,2.2,3.6,5.7,3.7,9c0,3.1-1,6.2-3.2,8.5c-2.6,2.6-5.8,3-9.3,3.3c-15.1,1.1-33.8,0.2-49.3,0.2l-98.7,0
	l-298.9,0.1C224.3,501.8,224.3,493.6,224.3,485.3z"/>
<path class="st11" d="M356.9,531.9c20.2-0.4,40.5,0.1,60.8,0.1c41.7-0.1,83.4,0.1,125.1,0.4c-1.2,1.1-2.4,2.3-3.6,3.5
	c-1.1,1.2-2.2,2.5-3.3,3.8c-1,1.3-2,2.7-2.9,4.1c-0.9,1.4-1.8,2.8-2.6,4.3c-8.2,14.8-9.5,30.9-4.8,47c1.1,3.4,2.6,6.8,3.9,10.1
	l-99.2-0.2c-21.1,0-42.2,0.3-63.2-0.5c4.2-8.6,6.8-16.5,7.1-26.1C374.6,562,368.2,543.9,356.9,531.9z"/>
<path class="st12" d="M376.6,73.1c9.4-4.3,20.4-6.7,30.3-9.6c45.2-13,88.4-17.6,133.4-0.9c23.1,8.6,46.4,24.6,61.2,44.6
	c5.2,7,9.5,15.2,13.1,23.1c9.2,20.3,12.9,38.4,13.7,60.6L380.9,191c-1.8-3-4.7-5.6-6.8-8.4c-3.4-4.4-5.9-10.5-8-15.7
	c-10.7-26.5-6.6-54.9,4.1-80.7C372.1,81.7,374.7,77.6,376.6,73.1z"/>
</svg>
