<?xml version="1.0" encoding="utf-8"?>
<!-- Generator: Adobe Illustrator 28.1.0, SVG Export Plug-In . SVG Version: 6.00 Build 0)  -->
<svg version="1.1" id="Слой_1" xmlns="http://www.w3.org/2000/svg" xmlns:xlink="http://www.w3.org/1999/xlink" x="0px" y="0px"
	 viewBox="0 0 60 60" style="enable-background:new 0 0 60 60;" xml:space="preserve">
<style type="text/css">
	.st0{fill:#002855;}
	.st1{fill:#872D04;}
	.st2{fill:#D25418;}
	.st3{fill:#49A717;}
	.st4{fill:#FFB000;}
	.st5{fill:#FF4646;}
</style>
<g>
	<g>
		<path class="st0" d="M15.82,0.3l37.24,58.13l-1.53,1.27C51.53,59.7,21.23,14.95,15.82,0.3z"/>
		<path class="st1" d="M40.88,48.19l7.47-4.75c0,0,3.75,6.22,2.73,7.67c-1.02,1.44-5.81,3.91-6.95,2.79
			C43,52.79,40.88,48.19,40.88,48.19z"/>
		<path class="st1" d="M35.98,36.86c0,0-0.94,8.48,1.13,8.97c2.07,0.49,10.32-2.78,10.34-5.47c0.02-2.69-5.96-6.13-5.96-6.13
			L35.98,36.86z"/>
		<path class="st1" d="M27.58,27.52c0,0-0.02,6.01,5.13,7.73c0,0,8.16-1.27,8.01-4.9C40.57,26.72,34.43,21.11,27.58,27.52z"/>
		<path class="st1" d="M25.54,24.73c0,0,10.27-1.16,8.62-6.05c-1.65-4.88-9.1-3.56-11.35-1.17C22.81,17.52,22.44,21.47,25.54,24.73z
			"/>
		<path class="st1" d="M18,11.27c0,0,0.63-3.39,5.01-4.54c0,0,5.16,3.58,4.09,5.74c-1.07,2.16-5.32,5.14-6.64,4.1
			C19.13,15.52,18,11.27,18,11.27z"/>
		<path class="st2" d="M44.75,51.27c0.23,0.06,0.32,0.53,0.2,1.06c-0.13,0.53-0.42,0.91-0.65,0.86c-0.23-0.06-0.32-0.53-0.2-1.06
			C44.22,51.6,44.51,51.21,44.75,51.27z"/>
		<path class="st2" d="M44.33,47.8c0.41,0.1,0.58,0.89,0.37,1.77c-0.21,0.88-0.71,1.52-1.12,1.42c-0.41-0.1-0.58-0.89-0.37-1.77
			C43.42,48.34,43.92,47.7,44.33,47.8z"/>
		<path class="st2" d="M47.83,45.26c0.22,0.05,0.29,0.56,0.15,1.13c-0.14,0.57-0.42,0.99-0.65,0.94c-0.22-0.05-0.29-0.56-0.15-1.13
			C47.32,45.63,47.61,45.21,47.83,45.26z"/>
		<path class="st2" d="M39.19,41.27c0.5,0.12,0.74,0.94,0.53,1.82c-0.21,0.89-0.79,1.51-1.29,1.39c-0.5-0.12-0.74-0.94-0.53-1.82
			C38.11,41.78,38.69,41.16,39.19,41.27z"/>
		<path class="st2" d="M38.17,39.41c0.26,0.06,0.38,0.51,0.26,1c-0.12,0.49-0.42,0.84-0.68,0.78c-0.26-0.06-0.38-0.51-0.26-1
			C37.6,39.69,37.91,39.35,38.17,39.41z"/>
		<path class="st2" d="M42.65,37.12c0.29,0.07,0.46,0.42,0.37,0.79c-0.09,0.37-0.4,0.61-0.69,0.54c-0.29-0.07-0.46-0.42-0.37-0.79
			C42.05,37.29,42.36,37.05,42.65,37.12z"/>
		<path class="st2" d="M41.05,35.79c0.35,0.08,0.56,0.5,0.45,0.94c-0.1,0.43-0.47,0.72-0.83,0.63c-0.35-0.08-0.56-0.5-0.45-0.94
			C40.33,35.99,40.7,35.71,41.05,35.79z"/>
		<path class="st2" d="M42.75,35.86c0.19,0.05,0.31,0.24,0.26,0.43c-0.05,0.19-0.24,0.31-0.43,0.26c-0.19-0.05-0.31-0.24-0.26-0.43
			C42.37,35.93,42.56,35.81,42.75,35.86z"/>
		<path class="st2" d="M34.53,29.42c0.82,0.19,1.26,1.3,0.99,2.48c-0.28,1.18-1.17,1.97-1.99,1.78c-0.82-0.19-1.26-1.3-0.99-2.48
			C32.82,30.02,33.71,29.22,34.53,29.42z"/>
		<path class="st2" d="M32.04,28.83c0.24,0.06,0.37,0.41,0.28,0.8c-0.09,0.38-0.36,0.65-0.6,0.59c-0.24-0.06-0.37-0.41-0.28-0.8
			C31.53,29.03,31.8,28.77,32.04,28.83z"/>
		<path class="st2" d="M38.99,28.73c0.34,0.08,0.52,0.51,0.42,0.97c-0.11,0.46-0.47,0.76-0.81,0.68c-0.34-0.08-0.52-0.51-0.42-0.97
			C38.29,28.95,38.65,28.65,38.99,28.73z"/>
		<path class="st2" d="M33.78,25.25c0.38,0.09,0.58,0.58,0.46,1.09c-0.12,0.51-0.52,0.86-0.9,0.77c-0.38-0.09-0.58-0.58-0.46-1.09
			C33,25.51,33.4,25.16,33.78,25.25z"/>
		<path class="st2" d="M27.23,19.56c0.6,0.14,0.91,1.03,0.69,1.98c-0.23,0.95-0.9,1.6-1.5,1.46c-0.6-0.14-0.91-1.03-0.69-1.98
			C25.96,20.08,26.63,19.42,27.23,19.56z"/>
		<path class="st2" d="M25.79,17.92c0.36,0.08,0.56,0.51,0.45,0.96c-0.11,0.44-0.48,0.74-0.83,0.65c-0.36-0.08-0.56-0.51-0.45-0.96
			C25.06,18.12,25.43,17.83,25.79,17.92z"/>
		<path class="st2" d="M24.5,20.08c0.24,0.06,0.37,0.35,0.29,0.66c-0.07,0.31-0.32,0.51-0.56,0.46c-0.24-0.06-0.37-0.35-0.29-0.66
			C24.01,20.23,24.26,20.02,24.5,20.08z"/>
		<path class="st2" d="M32.31,17.66c0.23,0.06,0.35,0.41,0.26,0.79c-0.09,0.38-0.35,0.65-0.59,0.59c-0.23-0.06-0.35-0.41-0.26-0.79
			C31.82,17.87,32.08,17.6,32.31,17.66z"/>
		<path class="st2" d="M22.04,12.76c0.54,0.13,0.82,0.91,0.63,1.75c-0.2,0.84-0.8,1.41-1.34,1.28c-0.54-0.13-0.82-0.91-0.63-1.75
			C20.9,13.2,21.5,12.63,22.04,12.76z"/>
		<path class="st2" d="M20.46,11.39c0.16,0.04,0.24,0.28,0.18,0.54c-0.06,0.26-0.24,0.44-0.4,0.4c-0.16-0.04-0.24-0.28-0.18-0.54
			C20.12,11.53,20.3,11.35,20.46,11.39z"/>
		<path class="st2" d="M25.63,10.41c0.37,0.09,0.55,0.62,0.42,1.2c-0.14,0.58-0.54,0.97-0.91,0.89c-0.37-0.09-0.55-0.62-0.42-1.2
			C24.86,10.72,25.27,10.32,25.63,10.41z"/>
		<path class="st2" d="M23.26,8.1c0.28,0.07,0.46,0.3,0.41,0.52c-0.05,0.22-0.32,0.35-0.6,0.28c-0.28-0.07-0.46-0.3-0.41-0.52
			C22.71,8.16,22.98,8.04,23.26,8.1z"/>
		<path class="st2" d="M21.9,7.78c0.15,0.03,0.2,0.33,0.12,0.67c-0.08,0.34-0.26,0.58-0.41,0.54c-0.15-0.03-0.2-0.33-0.12-0.67
			C21.57,7.99,21.75,7.75,21.9,7.78z"/>
		
			<rect x="38.88" y="44.69" transform="matrix(0.8259 -0.5638 0.5638 0.8259 -17.8195 33.4184)" class="st3" width="12.65" height="1.75"/>
		
			<rect x="36.22" y="43.46" transform="matrix(0.8597 -0.5108 0.5108 0.8597 -16.4165 28.8981)" class="st4" width="16.35" height="1.75"/>
		
			<rect x="18.73" y="14.48" transform="matrix(0.8597 -0.5108 0.5108 0.8597 -4.3243 14.9716)" class="st3" width="12.73" height="1.75"/>
		
			<rect x="36.85" y="42.38" transform="matrix(0.8655 -0.5009 0.5009 0.8655 -15.7757 27.7603)" class="st5" width="13.9" height="1.75"/>
		
			<rect x="33.02" y="34.46" transform="matrix(0.8612 -0.5083 0.5083 0.8612 -12.5295 24.7999)" class="st3" width="12.22" height="1.75"/>
		
			<rect x="20.32" y="15.49" transform="matrix(0.8715 -0.4903 0.4903 0.8715 -4.7911 14.4338)" class="st5" width="9.66" height="1.75"/>
		
			<rect x="30.69" y="33.66" transform="matrix(0.8586 -0.5127 0.5127 0.8586 -12.3401 24.3296)" class="st4" width="14.48" height="1.75"/>
		
			<rect x="30.97" y="32.61" transform="matrix(0.8619 -0.5071 0.5071 0.8619 -11.8607 23.4243)" class="st5" width="12.2" height="1.75"/>
		
			<rect x="25.2" y="24.75" transform="matrix(0.8717 -0.49 0.49 0.8717 -8.5836 18.4614)" class="st4" width="11.53" height="1.75"/>
		
			<rect x="25.38" y="23.36" transform="matrix(0.8835 -0.4684 0.4684 0.8835 -7.8268 16.9918)" class="st3" width="9.74" height="1.75"/>
	</g>
	<g>
		<path class="st0" d="M54.79,5.19L6.8,54.81l-1.59-1.2C5.21,53.61,41.78,13.82,54.79,5.19z"/>
		<path class="st2" d="M13.96,40.6l6.34,6.18c0,0-5.19,5.08-6.83,4.43c-1.64-0.66-5.14-4.76-4.32-6.12
			C9.97,43.72,13.96,40.6,13.96,40.6z"/>
		<path class="st2" d="M23.85,33.22c0,0-8.47,1.04-8.47,3.17c0,2.13,5.08,9.4,7.71,8.8c2.62-0.6,4.59-7.21,4.59-7.21L23.85,33.22z"
			/>
		<path class="st2" d="M31.01,22.89c0,0-5.85,1.37-6.34,6.78c0,0,3.12,7.65,6.61,6.67C34.78,35.36,38.83,28.09,31.01,22.89z"/>
		<path class="st2" d="M33.25,20.27c0,0,3.5,9.73,7.87,7c4.37-2.73,1.37-9.67-1.48-11.31C39.65,15.95,35.71,16.5,33.25,20.27z"/>
		<path class="st2" d="M44.62,9.83c0,0,3.44-0.16,5.57,3.83c0,0-2.3,5.85-4.65,5.3c-2.35-0.55-6.23-3.99-5.52-5.52
			C40.74,11.91,44.62,9.83,44.62,9.83z"/>
		<path class="st1" d="M11.85,45.07c0,0.24-0.44,0.44-0.98,0.44c-0.54,0-0.98-0.2-0.98-0.44c0-0.24,0.44-0.44,0.98-0.44
			C11.41,44.64,11.85,44.83,11.85,45.07z"/>
		<path class="st1" d="M15.13,43.87c0,0.42-0.73,0.77-1.64,0.77c-0.91,0-1.64-0.34-1.64-0.77c0-0.42,0.73-0.77,1.64-0.77
			C14.4,43.11,15.13,43.45,15.13,43.87z"/>
		<path class="st1" d="M18.41,46.69c0,0.23-0.48,0.41-1.07,0.41c-0.59,0-1.07-0.18-1.07-0.41c0-0.23,0.48-0.41,1.07-0.41
			C17.94,46.28,18.41,46.46,18.41,46.69z"/>
		<path class="st1" d="M20.3,37.36c0,0.52-0.74,0.93-1.65,0.93c-0.91,0-1.65-0.42-1.65-0.93c0-0.52,0.74-0.93,1.65-0.93
			C19.56,36.43,20.3,36.85,20.3,37.36z"/>
		<path class="st1" d="M21.88,35.94c0,0.27-0.41,0.49-0.91,0.49c-0.51,0-0.91-0.22-0.91-0.49c0-0.27,0.41-0.49,0.91-0.49
			C21.47,35.45,21.88,35.67,21.88,35.94z"/>
		<path class="st1" d="M25.14,39.77c0,0.3-0.31,0.55-0.68,0.55c-0.38,0-0.68-0.24-0.68-0.55c0-0.3,0.31-0.55,0.68-0.55
			C24.83,39.23,25.14,39.47,25.14,39.77z"/>
		<path class="st1" d="M26.06,37.91c0,0.36-0.36,0.66-0.81,0.66c-0.45,0-0.81-0.29-0.81-0.66c0-0.36,0.36-0.66,0.81-0.66
			C25.7,37.26,26.06,37.55,26.06,37.91z"/>
		<path class="st1" d="M26.39,39.58c0,0.2-0.16,0.35-0.36,0.35c-0.2,0-0.36-0.16-0.36-0.35s0.16-0.35,0.36-0.35
			C26.23,39.23,26.39,39.39,26.39,39.58z"/>
		<path class="st1" d="M30.76,30.1c0,0.85-0.98,1.53-2.19,1.53c-1.21,0-2.19-0.69-2.19-1.53c0-0.84,0.98-1.53,2.19-1.53
			C29.79,28.57,30.76,29.25,30.76,30.1z"/>
		<path class="st1" d="M30.76,27.54c0,0.25-0.32,0.45-0.71,0.45c-0.39,0-0.71-0.2-0.71-0.45c0-0.25,0.32-0.45,0.71-0.45
			C30.45,27.09,30.76,27.29,30.76,27.54z"/>
		<path class="st1" d="M32.46,34.28c0,0.35-0.38,0.63-0.85,0.63c-0.47,0-0.85-0.28-0.85-0.63c0-0.35,0.38-0.63,0.85-0.63
			C32.08,33.65,32.46,33.93,32.46,34.28z"/>
		<path class="st1" d="M34.65,28.41c0,0.39-0.43,0.7-0.96,0.7c-0.53,0-0.96-0.31-0.96-0.7c0-0.39,0.43-0.7,0.96-0.7
			C34.22,27.7,34.65,28.02,34.65,28.41z"/>
		<path class="st1" d="M38.67,20.73c0,0.62-0.79,1.12-1.77,1.12c-0.98,0-1.77-0.5-1.77-1.12c0-0.62,0.79-1.12,1.77-1.12
			C37.88,19.6,38.67,20.11,38.67,20.73z"/>
		<path class="st1" d="M39.94,18.94c0,0.36-0.37,0.66-0.83,0.66c-0.46,0-0.83-0.3-0.83-0.66c0-0.37,0.37-0.66,0.83-0.66
			C39.57,18.28,39.94,18.58,39.94,18.94z"/>
		<path class="st1" d="M37.54,18.18c0,0.24-0.26,0.44-0.57,0.44c-0.32,0-0.57-0.2-0.57-0.44c0-0.24,0.26-0.44,0.57-0.44
			C37.29,17.74,37.54,17.94,37.54,18.18z"/>
		<path class="st1" d="M41.7,25.23c0,0.24-0.32,0.44-0.71,0.44c-0.39,0-0.71-0.2-0.71-0.44c0-0.24,0.32-0.44,0.71-0.44
			C41.38,24.8,41.7,24.99,41.7,25.23z"/>
		<path class="st1" d="M44.1,14.11c0,0.56-0.7,1.01-1.56,1.01c-0.86,0-1.56-0.45-1.56-1.01c0-0.56,0.7-1.01,1.56-1.01
			C43.4,13.1,44.1,13.55,44.1,14.11z"/>
		<path class="st1" d="M45.07,12.25c0,0.17-0.22,0.3-0.48,0.3c-0.27,0-0.48-0.13-0.48-0.3c0-0.17,0.22-0.3,0.48-0.3
			C44.85,11.95,45.07,12.09,45.07,12.25z"/>
		<path class="st1" d="M47.22,17.06c0,0.38-0.48,0.68-1.07,0.68c-0.59,0-1.07-0.31-1.07-0.68c0-0.38,0.48-0.68,1.07-0.68
			C46.74,16.38,47.22,16.68,47.22,17.06z"/>
		<path class="st1" d="M48.91,14.22c0,0.29-0.18,0.52-0.41,0.52c-0.23,0-0.41-0.23-0.41-0.52c0-0.29,0.18-0.52,0.41-0.52
			C48.73,13.7,48.91,13.93,48.91,14.22z"/>
		<path class="st1" d="M48.91,12.83c0,0.15-0.28,0.27-0.62,0.27c-0.34,0-0.62-0.12-0.62-0.27c0-0.15,0.28-0.27,0.62-0.27
			C48.63,12.55,48.91,12.67,48.91,12.83z"/>
		
			<rect x="16.64" y="37.87" transform="matrix(0.6739 -0.7388 0.7388 0.6739 -26.9442 27.3483)" class="st5" width="1.75" height="12.65"/>
		
			<rect x="17.65" y="34.96" transform="matrix(0.7187 -0.6953 0.6953 0.7187 -24.7799 25.0094)" class="st3" width="1.75" height="16.35"/>
		
			<rect x="41.4" y="11.31" transform="matrix(0.7187 -0.6953 0.6953 0.7187 -0.3985 34.3628)" class="st4" width="1.75" height="12.73"/>
		
			<rect x="18.56" y="35.36" transform="matrix(0.7268 -0.6868 0.6868 0.7268 -23.7484 24.906)" class="st5" width="1.75" height="13.89"/>
		
			<rect x="25.19" y="29.83" transform="matrix(0.7207 -0.6932 0.6932 0.7207 -17.6357 28.106)" class="st3" width="1.75" height="12.22"/>
		
			<rect x="40.44" y="13.13" transform="matrix(0.7351 -0.678 0.678 0.7351 -1.2354 32.7674)" class="st5" width="1.75" height="9.66"/>
		
			<rect x="25.7" y="27.34" transform="matrix(0.7175 -0.6966 0.6966 0.7175 -16.581 28.2789)" class="st5" width="1.75" height="14.48"/>
		
			<rect x="26.51" y="27.41" transform="matrix(0.7219 -0.692 0.692 0.7219 -15.5713 28.2748)" class="st3" width="1.75" height="12.2"/>
		
			<rect x="32.76" y="19.99" transform="matrix(0.7354 -0.6776 0.6776 0.7354 -8.5551 29.6041)" class="st4" width="1.75" height="11.54"/>
		
			<rect x="33.95" y="19.87" transform="matrix(0.752 -0.6592 0.6592 0.752 -7.6727 29.0924)" class="st3" width="1.75" height="9.74"/>
	</g>
</g>
</svg>
